<?xml version="1.0" encoding="UTF-8" standalone="no"?>
<!DOCTYPE svg PUBLIC "-//W3C//DTD SVG 1.1//EN" "http://www.w3.org/Graphics/SVG/1.1/DTD/svg11.dtd">
<svg xmlns="http://www.w3.org/2000/svg" version="1.1" viewBox="0 0 270 270">
<g stroke-width="2.00" fill="none" stroke-linecap="butt">
<path stroke="#0c5985" vector-effect="non-scaling-stroke" d="
  M 253.04 84.25
  Q 247.47 84.65 246.46 79.00"
/>
<path stroke="#376a93" vector-effect="non-scaling-stroke" d="
  M 246.46 79.00
  Q 246.80 76.37 247.25 73.75
  Q 247.62 71.61 246.11 69.71
  Q 244.91 68.21 242.81 67.58
  Q 238.31 66.23 235.99 69.78
  Q 234.39 72.23 234.79 75.12
  Q 235.19 78.07 237.50 80.29"
/>
<path stroke="#0c5985" vector-effect="non-scaling-stroke" d="
  M 237.50 80.29
  Q 239.85 84.18 239.28 88.75
  Q 239.23 89.18 239.54 89.50"
/>
<path stroke="#356c93" vector-effect="non-scaling-stroke" d="
  M 239.54 89.50
  Q 239.38 131.04 239.50 172.58
  Q 239.50 172.62 239.32 175.42
  Q 239.15 178.05 240.29 180.50"
/>
<path stroke="#145683" vector-effect="non-scaling-stroke" d="
  M 240.29 180.50
  Q 240.49 183.56 242.67 184.67
  Q 244.75 185.73 246.70 184.30
  Q 249.01 182.60 248.46 179.00"
/>
<path stroke="#356c93" vector-effect="non-scaling-stroke" d="
  M 248.46 179.00
  Q 248.94 133.55 248.50 106.25
  Q 248.41 100.48 253.50 98.79"
/>
<path stroke="#524155" vector-effect="non-scaling-stroke" d="
  M 258.50 100.21
  Q 257.50 100.29 258.32 100.84
  Q 258.61 101.04 258.86 101.46
  Q 259.20 102.06 259.79 101.75"
/>
<path stroke="#524155" vector-effect="non-scaling-stroke" d="
  M 246.96 199.00
  Q 243.88 200.67 246.21 203.25"
/>
<path stroke="#2a214a" stroke-opacity="0.996" vector-effect="non-scaling-stroke" d="
  M 243.96 243.00
  L 236.54 248.25"
/>
<path stroke="#2a214a" stroke-opacity="0.996" vector-effect="non-scaling-stroke" d="
  M 75.25 248.04
  Q 69.63 249.61 63.75 249.46"
/>
<path stroke="#2a214a" stroke-opacity="0.996" vector-effect="non-scaling-stroke" d="
  M 49.04 219.25
  Q 49.95 218.95 49.85 218.00
  Q 49.76 217.09 49.77 216.99
  Q 49.93 211.86 49.46 206.75"
/>
<path stroke="#2a214a" stroke-opacity="0.996" vector-effect="non-scaling-stroke" d="
  M 46.25 108.21
  Q 49.95 102.09 52.71 95.50"
/>
<path stroke="#6a779d" vector-effect="non-scaling-stroke" d="
  M 68.25 84.79
  Q 70.62 89.24 67.31 93.81
  Q 50.67 116.83 49.04 146.50"
/>
<path stroke="#225392" vector-effect="non-scaling-stroke" d="
  M 49.04 146.50
  Q 47.93 167.67 55.37 188.06
  Q 55.56 188.59 55.84 188.12
  L 58.50 183.54"
/>
<path stroke="#3768a0" vector-effect="non-scaling-stroke" d="
  M 58.50 183.54
  L 78.07 150.95
  A 1.11 1.06 52.6 0 0 78.17 150.02
  Q 76.73 145.67 77.75 141.54"
/>
<path stroke="#4e6397" vector-effect="non-scaling-stroke" d="
  M 77.75 141.54
  Q 78.82 136.84 81.53 133.15
  Q 83.59 130.36 88.28 127.25
  Q 97.53 121.10 107.91 116.59
  A 0.43 0.42 55.2 0 0 108.03 115.90
  Q 103.58 111.53 99.96 107.07
  Q 93.82 99.49 92.46 89.75"
/>
<path stroke="#6a779d" vector-effect="non-scaling-stroke" d="
  M 92.46 89.75
  L 90.86 77.30
  A 1.02 0.99 0.1 0 0 89.98 76.44
  Q 85.56 75.88 82.79 76.75"
/>
<path stroke="#524155" vector-effect="non-scaling-stroke" d="
  M 79.46 71.75
  Q 79.44 68.17 82.14 66.33
  A 1.67 1.38 23.8 0 1 83.06 66.07
  Q 87.31 66.12 90.25 65.75
  Q 90.81 65.68 90.75 65.04"
/>
<path stroke="#524155" vector-effect="non-scaling-stroke" d="
  M 163.25 44.04
  Q 174.98 51.03 185.71 60.53
  Q 186.19 60.95 186.31 60.32
  Q 189.70 42.01 179.04 27.00"
/>
<path stroke="#63596b" vector-effect="non-scaling-stroke" d="
  M 179.04 27.00
  Q 165.87 8.50 144.24 9.09
  Q 136.87 9.30 130.59 11.97
  Q 124.19 14.69 118.56 19.49
  A 0.68 0.68 -53.1 0 0 118.72 20.62
  Q 142.11 31.32 163.25 44.04"
/>
<path stroke="#ad967d" vector-effect="non-scaling-stroke" d="
  M 179.04 27.00
  L 177.79 29.50"
/>
<path stroke="#ad967d" vector-effect="non-scaling-stroke" d="
  M 177.79 29.50
  Q 174.17 37.83 166.25 42.21"
/>
<path stroke="#ad967d" vector-effect="non-scaling-stroke" d="
  M 166.25 42.21
  L 164.29 42.70
  A 0.55 0.43 78.6 0 0 163.99 43.29
  Q 164.10 43.92 163.25 44.04"
/>
<path stroke="#9b7d67" vector-effect="non-scaling-stroke" d="
  M 166.25 42.21
  Q 166.77 42.61 166.96 43.20
  A 1.86 0.98 86.5 0 0 167.45 44.01
  Q 174.35 49.64 181.35 55.14
  Q 186.45 59.15 186.19 52.94
  Q 185.79 43.26 181.20 32.95
  A 1.59 0.69 -68.4 0 1 181.17 32.02
  Q 181.30 31.33 180.50 31.25
  Q 179.15 31.11 177.79 29.50"
/>
<path stroke="#7f566f" vector-effect="non-scaling-stroke" d="
  M 101.29 51.25
  Q 100.77 55.75 101.29 60.25"
/>
<path stroke="#8381a0" vector-effect="non-scaling-stroke" d="
  M 101.29 60.25
  Q 100.78 76.57 104.68 92.41
  Q 106.18 98.50 110.81 103.44
  Q 116.75 109.77 124.25 112.75
  Q 133.41 116.38 141.94 111.69
  Q 148.80 107.91 161.04 97.50"
/>
<path stroke="#82637d" vector-effect="non-scaling-stroke" d="
  M 161.04 97.50
  Q 169.19 90.78 174.81 83.56
  Q 178.72 78.55 180.62 71.73
  A 1.04 0.76 -63.3 0 0 180.47 70.83
  L 178.75 68.96"
/>
<path stroke="#7f566f" vector-effect="non-scaling-stroke" d="
  M 178.75 68.96
  L 176.49 67.07
  A 0.63 0.60 -47.4 0 0 175.66 67.13
  L 171.06 71.85
  A 1.55 0.85 81.9 0 0 170.72 72.75
  Q 170.24 78.78 164.25 80.04"
/>
<path stroke="#8381a0" vector-effect="non-scaling-stroke" d="
  M 164.25 80.04
  Q 162.25 79.72 160.81 78.53
  Q 159.45 77.41 159.19 75.40
  Q 158.74 71.90 160.50 68.75
  Q 162.08 65.92 165.00 61.54"
/>
<path stroke="#7f566f" vector-effect="non-scaling-stroke" d="
  M 165.00 61.54
  L 166.23 60.02
  A 0.58 0.47 36.0 0 0 166.03 59.28
  Q 156.31 52.47 145.75 47.04"
/>
<path stroke="#524155" vector-effect="non-scaling-stroke" d="
  M 145.75 47.04
  Q 133.90 40.42 121.96 33.96
  Q 120.06 32.94 117.90 32.90
  Q 98.33 32.60 78.75 32.73
  Q 75.55 32.75 73.86 33.48
  Q 71.34 34.56 69.90 36.76
  Q 67.99 39.66 68.94 43.50
  Q 70.72 50.69 79.50 51.00
  Q 86.00 51.23 100.00 50.75
  Q 101.15 50.71 101.29 51.25"
/>
<path stroke="#c89281" vector-effect="non-scaling-stroke" d="
  M 145.75 47.04
  Q 144.96 48.67 146.69 48.81
  Q 148.15 48.93 148.81 50.94
  Q 149.13 51.90 148.25 52.54"
/>
<path stroke="#cdbeb3" vector-effect="non-scaling-stroke" d="
  M 148.25 52.54
  Q 138.23 48.45 127.49 50.47
  Q 122.96 51.32 118.50 52.54"
/>
<path stroke="#c89281" vector-effect="non-scaling-stroke" d="
  M 118.50 52.54
  Q 115.56 51.72 112.50 51.95
  Q 106.83 52.37 101.29 51.25"
/>
<path stroke="#fad3cd" vector-effect="non-scaling-stroke" d="
  M 164.25 80.04
  Q 165.44 85.63 163.71 91.00"
/>
<path stroke="#fde0db" vector-effect="non-scaling-stroke" d="
  M 163.71 91.00
  Q 162.57 92.85 161.41 94.69
  Q 160.58 96.01 161.04 97.50"
/>
<path stroke="#fad3cd" vector-effect="non-scaling-stroke" d="
  M 101.29 60.25
  Q 101.96 60.41 103.06 59.81
  Q 107.29 57.53 118.50 52.54"
/>
<path stroke="#fad3cd" vector-effect="non-scaling-stroke" d="
  M 165.00 61.54
  Q 163.46 62.11 162.00 61.00
  Q 156.21 56.60 148.25 52.54"
/>
<path stroke="#f9b5a9" vector-effect="non-scaling-stroke" d="
  M 178.75 68.96
  Q 177.41 69.32 178.62 70.81
  A 2.28 2.28 35.1 0 1 179.00 72.98
  Q 175.34 83.46 166.25 90.75
  Q 165.17 91.62 163.71 91.00"
/>
<path stroke="#376a93" vector-effect="non-scaling-stroke" d="
  M 223.79 70.26
  Q 211.66 62.14 198.23 57.99
  A 0.39 0.38 -78.7 0 0 197.74 58.32
  Q 197.34 62.58 195.87 66.88
  A 0.55 0.54 -73.3 0 0 196.24 67.58
  Q 211.20 71.66 224.77 79.16
  Q 225.43 79.53 225.31 78.74
  L 224.23 71.06
  A 1.25 0.88 -83.8 0 0 223.79 70.26"
/>
<path stroke="#7a3977" vector-effect="non-scaling-stroke" d="
  M 189.29 80.25
  L 184.57 89.53
  A 0.49 0.48 -76.0 0 0 184.99 90.25
  L 211.50 90.21"
/>
<path stroke="#6c2a6f" vector-effect="non-scaling-stroke" d="
  M 211.50 90.21
  L 220.51 90.21
  Q 222.36 90.21 220.74 89.29
  Q 207.00 81.52 191.73 78.33
  Q 189.39 77.84 189.29 80.25"
/>
<path stroke="#de5ea4" vector-effect="non-scaling-stroke" d="
  M 211.50 90.21
  L 214.45 89.93
  Q 215.00 89.88 214.71 89.51
  Q 214.51 89.26 214.25 89.25
  Q 210.07 89.11 204.69 86.31
  Q 201.07 84.43 191.80 81.82
  Q 191.62 81.77 190.96 81.34
  L 189.29 80.25"
/>
<path stroke="#7b3e81" vector-effect="non-scaling-stroke" d="
  M 181.94 105.07
  L 226.25 105.00
  A 2.00 1.62 9.3 0 0 228.00 104.00
  Q 228.50 102.86 228.14 101.78
  A 0.75 0.69 -8.6 0 0 227.44 101.31
  L 180.05 101.31
  A 0.42 0.41 -5.1 0 0 179.63 101.80
  Q 179.94 103.48 181.09 104.71
  A 1.19 1.09 -19.6 0 0 181.94 105.07"
/>
<path stroke="#7f566f" vector-effect="non-scaling-stroke" d="
  M 162.25 111.29
  Q 155.65 116.19 148.58 120.31
  Q 141.86 124.23 136.71 125.00
  Q 129.12 126.14 121.50 123.54"
/>
<path stroke="#8381a0" vector-effect="non-scaling-stroke" d="
  M 121.50 123.54
  Q 120.14 122.77 120.14 123.85
  Q 120.14 124.68 120.13 124.78
  Q 119.82 127.78 120.55 132.38
  A 4.98 4.96 20.7 0 0 121.66 134.83
  Q 127.90 142.26 138.00 143.29
  Q 149.76 144.50 159.50 138.04"
/>
<path stroke="#82637d" vector-effect="non-scaling-stroke" d="
  M 159.50 138.04
  L 163.85 134.80
  A 1.18 0.74 79.4 0 0 164.19 133.93
  L 164.25 110.40
  Q 164.25 109.87 163.82 110.17
  L 162.25 111.29"
/>
<path stroke="#fde0db" vector-effect="non-scaling-stroke" d="
  M 159.50 138.04
  Q 158.98 137.78 158.79 137.25"
/>
<path stroke="#f9b5a9" vector-effect="non-scaling-stroke" d="
  M 158.79 137.25
  Q 159.91 137.11 160.55 136.23
  Q 160.86 135.81 161.26 135.58
  Q 163.40 134.38 163.21 132.07
  Q 163.07 130.36 163.07 130.30
  Q 163.12 124.36 163.02 118.43
  Q 163.02 118.31 163.23 115.60
  Q 163.41 113.34 162.25 111.29"
/>
<path stroke="#fad3cd" vector-effect="non-scaling-stroke" d="
  M 158.79 137.25
  Q 157.88 136.81 158.50 136.00
  Q 158.50 129.00 158.50 122.13
  Q 158.50 121.52 158.01 121.88
  Q 153.16 125.50 147.92 128.37
  Q 140.60 132.38 136.96 133.14
  Q 128.43 134.93 122.06 127.19
  Q 120.79 125.63 121.50 123.54"
/>
<path stroke="#356c93" vector-effect="non-scaling-stroke" d="
  M 210.71 137.00
  L 211.79 143.00"
/>
<path stroke="#145683" vector-effect="non-scaling-stroke" d="
  M 211.79 143.00
  Q 210.46 144.69 211.19 145.81
  Q 215.67 152.72 219.96 159.75"
/>
<path stroke="#356c93" vector-effect="non-scaling-stroke" d="
  M 219.96 159.75
  L 224.71 168.25"
/>
<path stroke="#3e7a9e" vector-effect="non-scaling-stroke" d="
  M 224.71 168.25
  L 227.70 173.35
  Q 228.00 173.86 228.01 173.25
  Q 228.42 152.13 228.25 131.00
  Q 228.24 129.18 227.00 129.79"
/>
<path stroke="#356c93" vector-effect="non-scaling-stroke" d="
  M 227.00 129.79
  Q 221.69 129.98 216.50 128.96"
/>
<path stroke="#0c5985" vector-effect="non-scaling-stroke" d="
  M 216.50 128.96
  Q 214.37 127.76 213.50 125.46"
/>
<path stroke="#145683" vector-effect="non-scaling-stroke" d="
  M 213.50 125.46
  Q 213.20 122.48 214.94 120.79
  Q 216.18 119.58 219.06 119.39
  Q 223.03 119.15 227.00 119.24
  A 1.24 0.96 16.8 0 0 227.87 118.91
  Q 228.61 118.08 228.05 117.15
  A 1.00 0.83 -13.3 0 0 227.25 116.75
  L 215.00 116.79"
/>
<path stroke="#0c5985" vector-effect="non-scaling-stroke" d="
  M 215.00 116.79
  L 177.59 116.58
  Q 175.23 116.57 177.49 117.25
  Q 186.36 119.92 194.53 124.17
  Q 201.70 127.91 203.57 129.22
  Q 207.90 132.27 210.71 137.00"
/>
<path stroke="#18abc5" vector-effect="non-scaling-stroke" d="
  M 215.00 116.79
  Q 215.12 119.10 214.29 119.72
  A 4.76 4.74 82.0 0 0 212.69 121.85
  Q 211.47 125.11 213.50 125.46"
/>
<path stroke="#38c1d6" vector-effect="non-scaling-stroke" d="
  M 216.50 128.96
  Q 213.29 131.59 211.85 135.48
  Q 211.69 135.93 211.34 136.28
  Q 211.02 136.62 210.71 137.00"
/>
<path stroke="#6be1ef" vector-effect="non-scaling-stroke" d="
  M 227.00 129.79
  Q 227.00 146.42 227.00 163.05
  Q 227.00 163.13 227.16 164.94
  Q 227.40 167.55 224.71 168.25"
/>
<path stroke="#41bdd4" vector-effect="non-scaling-stroke" d="
  M 219.96 159.75
  Q 219.88 150.11 213.25 143.25
  Q 212.84 142.82 211.79 143.00"
/>
<path stroke="#145683" vector-effect="non-scaling-stroke" d="
  M 104.50 236.79
  L 99.98 238.52
  A 0.75 0.74 79.9 0 0 99.50 239.22
  L 99.50 248.23
  A 2.04 1.74 -76.5 0 0 100.34 249.88
  L 104.50 252.46"
/>
<path stroke="#376a93" vector-effect="non-scaling-stroke" d="
  M 104.50 252.46
  Q 133.36 267.41 165.50 260.96"
/>
<path stroke="#145683" vector-effect="non-scaling-stroke" d="
  M 165.50 260.96
  Q 175.07 259.28 186.31 254.31
  Q 188.16 253.50 187.71 251.75"
/>
<path stroke="#0c5985" vector-effect="non-scaling-stroke" d="
  M 187.71 251.75
  L 187.69 228.30
  A 0.58 0.56 4.8 0 0 187.20 227.74
  Q 175.02 225.96 165.96 217.75"
/>
<path stroke="#376a93" vector-effect="non-scaling-stroke" d="
  M 165.96 217.75
  Q 161.73 211.84 162.50 204.50
  Q 162.89 200.81 162.45 189.49
  Q 162.29 185.44 165.05 182.55
  Q 169.88 177.50 175.82 173.83
  Q 179.35 171.65 183.52 171.25
  A 1.34 1.33 -7.0 0 0 184.71 169.73
  Q 184.48 168.13 184.65 166.26
  Q 184.85 164.09 183.46 162.50"
/>
<path stroke="#3e7a9e" vector-effect="non-scaling-stroke" d="
  M 183.46 162.50
  Q 183.01 144.79 183.25 134.25
  Q 183.30 132.22 182.96 131.25"
/>
<path stroke="#376a93" vector-effect="non-scaling-stroke" d="
  M 182.96 131.25
  Q 181.77 129.40 180.56 130.04
  Q 179.96 130.36 179.27 131.71
  Q 171.08 147.80 153.44 152.70
  Q 136.87 157.30 122.77 149.54
  Q 116.85 146.28 113.16 141.86
  Q 109.13 137.03 107.25 130.74
  Q 106.73 129.00 105.72 130.51
  Q 105.09 131.46 105.18 132.85
  Q 105.25 134.08 105.25 134.16
  Q 105.25 147.60 105.25 161.95
  A 0.92 0.92 -4.5 0 0 106.32 162.86
  Q 110.89 162.14 113.14 164.70
  Q 114.43 166.16 114.47 168.21
  Q 114.51 170.59 112.74 171.89
  Q 111.31 172.94 107.89 172.98
  Q 104.12 173.03 100.15 173.00
  A 0.63 0.62 0.5 0 0 99.51 173.62
  L 99.55 181.18
  A 0.86 0.82 14.3 0 0 100.01 181.92
  Q 106.11 185.03 111.14 189.60
  Q 114.90 193.00 116.03 194.70
  Q 118.07 197.74 118.05 201.75
  Q 118.00 211.63 118.10 221.50
  Q 118.13 225.00 115.95 227.69
  Q 111.23 233.51 104.50 236.79"
/>
<path stroke="#6de0ef" vector-effect="non-scaling-stroke" d="
  M 182.96 131.25
  Q 182.66 131.19 182.43 131.28
  A 0.85 0.52 84.6 0 0 182.06 132.03
  L 182.00 161.71"
/>
<path stroke="#3abfd5" vector-effect="non-scaling-stroke" d="
  M 182.00 161.71
  Q 173.20 162.04 171.25 162.50
  Q 167.93 163.28 166.41 166.44
  Q 165.54 168.24 165.37 172.20
  Q 165.21 175.70 165.06 179.20
  Q 164.96 181.57 166.62 179.87
  Q 170.16 176.23 174.70 172.96
  Q 177.67 170.82 181.23 170.10
  Q 182.46 169.86 182.89 169.27
  Q 183.52 168.44 183.35 167.24
  Q 183.28 166.74 183.43 166.28
  Q 184.08 164.29 182.79 162.50"
/>
<path stroke="#6de0ef" vector-effect="non-scaling-stroke" d="
  M 182.79 162.50
  L 183.46 162.50"
/>
<path stroke="#3abfd5" vector-effect="non-scaling-stroke" d="
  M 165.96 217.75
  Q 165.50 218.79 165.50 221.25
  Q 165.50 231.37 165.50 241.50
  Q 165.50 244.40 166.25 245.71"
/>
<path stroke="#376a93" vector-effect="non-scaling-stroke" d="
  M 166.25 245.71
  Q 135.72 245.83 129.75 245.75
  Q 127.50 245.72 126.05 246.76
  Q 124.67 247.76 124.38 249.82
  Q 123.95 252.81 126.07 254.67
  Q 127.60 256.02 130.42 256.32
  Q 132.50 256.54 135.25 256.50
  Q 140.22 256.42 165.25 256.54"
/>
<path stroke="#43bcd3" vector-effect="non-scaling-stroke" d="
  M 165.25 256.54
  Q 164.89 258.76 165.50 260.96"
/>
<path stroke="#43bcd3" vector-effect="non-scaling-stroke" d="
  M 104.50 252.46
  Q 105.36 251.44 105.25 250.25
  Q 105.07 248.30 105.07 248.22
  Q 105.41 243.28 105.21 238.32
  A 1.59 0.86 36.5 0 0 104.82 237.49
  Q 104.57 237.19 104.50 236.79"
/>
<path stroke="#42cfe1" vector-effect="non-scaling-stroke" d="
  M 182.79 162.50
  Q 182.50 162.00 182.00 161.71"
/>
<path stroke="#145683" vector-effect="non-scaling-stroke" d="
  M 172.46 254.50
  Q 169.36 257.02 165.25 256.54"
/>
<path stroke="#18abc5" vector-effect="non-scaling-stroke" d="
  M 187.71 251.75
  Q 181.50 255.13 174.78 257.34
  Q 173.48 257.77 173.46 256.50
  A 1.71 1.38 -67.2 0 0 173.20 255.60
  L 172.46 254.50"
/>
<path stroke="#0c5985" vector-effect="non-scaling-stroke" d="
  M 172.46 254.50
  Q 175.55 249.82 171.25 246.50
  Q 169.76 245.35 166.25 245.71"
/>
<path stroke="#7b3e81" vector-effect="non-scaling-stroke" d="
  M 188.75 147.96
  Q 187.92 151.33 189.86 153.45
  Q 191.36 155.09 193.58 155.01
  Q 196.03 154.91 197.44 152.69
  Q 199.44 149.53 199.99 144.57
  Q 199.99 144.52 200.32 143.08
  Q 200.57 142.00 199.96 141.00"
/>
<path stroke="#7a3977" vector-effect="non-scaling-stroke" d="
  M 199.96 141.00
  Q 195.90 137.26 190.77 135.24
  A 0.39 0.37 -76.5 0 0 190.27 135.57
  L 188.75 147.96"
/>
<path stroke="#ed73b6" vector-effect="non-scaling-stroke" d="
  M 199.96 141.00
  Q 198.67 141.25 198.81 142.33
  Q 198.91 143.05 198.84 143.29
  L 196.37 151.97
  A 1.49 1.15 -13.8 0 1 195.77 152.72
  Q 191.79 155.31 189.94 150.97
  Q 189.78 150.60 189.84 150.00
  Q 189.97 148.63 188.75 147.96"
/>
<path stroke="#7a3977" vector-effect="non-scaling-stroke" d="
  M 96.00 137.21
  L 92.46 140.00"
/>
<path stroke="#7b3e81" vector-effect="non-scaling-stroke" d="
  M 92.46 140.00
  L 89.25 143.56
  A 1.42 0.70 77.4 0 0 89.02 144.50
  Q 89.26 151.27 90.81 154.44
  Q 92.49 157.87 96.25 156.62
  Q 99.34 155.59 100.00 152.50
  Q 100.76 148.96 99.80 145.13
  Q 98.70 140.76 98.75 136.23
  Q 98.77 134.71 97.66 135.71
  L 96.00 137.21"
/>
<path stroke="#ed73b6" vector-effect="non-scaling-stroke" d="
  M 92.46 140.00
  Q 92.45 142.53 90.83 144.39
  A 1.32 1.14 -29.3 0 0 90.52 145.24
  Q 90.75 150.01 92.57 154.45
  Q 93.31 156.27 95.23 155.88
  Q 98.23 155.26 98.77 151.86
  Q 99.24 148.91 98.47 146.03
  Q 97.81 143.56 97.25 139.00
  Q 97.06 137.49 96.00 137.21"
/>
<path stroke="#0c5985" vector-effect="non-scaling-stroke" d="
  M 199.86 173.29
  Q 200.89 175.90 202.69 177.31
  Q 211.46 184.18 225.59 193.97
  A 0.70 0.44 34.5 0 0 226.41 194.00
  Q 226.61 193.72 226.31 193.19
  Q 216.54 175.78 206.49 158.66
  A 0.29 0.29 0.0 0 0 205.99 158.66
  Q 202.65 164.53 197.75 168.25
  Q 196.05 169.54 196.57 171.28
  A 1.11 0.85 6.0 0 0 197.22 171.90
  L 199.22 172.62
  A 1.18 0.99 86.5 0 1 199.86 173.29"
/>
<path stroke="#3e7a9e" vector-effect="non-scaling-stroke" d="
  M 75.75 188.54
  L 86.65 182.75
  A 2.31 2.06 77.4 0 0 87.75 180.78
  L 87.71 171.75"
/>
<path stroke="#356c93" vector-effect="non-scaling-stroke" d="
  M 87.71 171.75
  L 87.72 168.30
  A 1.43 0.69 38.0 0 0 87.31 167.47
  L 84.13 163.84
  A 0.50 0.46 39.7 0 0 83.34 163.88
  Q 76.10 177.11 70.61 190.63
  Q 70.41 191.12 70.88 190.90
  L 75.75 188.54"
/>
<path stroke="#6be1ef" vector-effect="non-scaling-stroke" d="
  M 87.71 171.75
  Q 86.82 170.44 85.95 172.80
  Q 85.70 173.47 85.75 174.05
  L 86.29 180.35
  A 1.94 1.82 73.4 0 1 85.38 182.17
  Q 81.31 184.46 77.06 186.79
  Q 76.89 186.88 76.01 187.21
  Q 74.96 187.60 75.75 188.54"
/>
<path stroke="#080442" vector-effect="non-scaling-stroke" d="
  M 238.5535 175.1494
  A 5.98 0.93 89.2 0 0 239.3999 169.1570
  A 5.98 0.93 89.2 0 0 238.3865 163.1906
  A 5.98 0.93 89.2 0 0 237.5401 169.1830
  A 5.98 0.93 89.2 0 0 238.5535 175.1494"
/>
<path stroke="#7f566f" vector-effect="non-scaling-stroke" d="
  M 181.25 183.54
  Q 177.78 185.12 174.45 188.43
  A 2.35 2.34 -22.4 0 0 173.75 190.10
  L 173.75 210.00
  A 1.68 1.68 -72.7 0 0 174.47 211.38
  Q 183.57 217.65 195.78 218.88
  A 0.81 0.81 -86.9 0 1 196.51 219.70
  Q 196.45 223.84 196.76 227.49
  Q 196.93 229.47 198.04 231.77
  Q 199.04 233.84 199.79 236.00"
/>
<path stroke="#145683" vector-effect="non-scaling-stroke" d="
  M 199.79 236.00
  L 199.48 247.24
  Q 199.46 247.86 199.95 247.54
  L 205.25 244.04"
/>
<path stroke="#8381a0" vector-effect="non-scaling-stroke" d="
  M 205.25 244.04
  Q 218.26 235.20 224.18 220.82
  Q 225.73 217.04 226.28 215.18
  Q 227.14 212.28 227.25 209.19
  A 1.96 1.96 -71.8 0 0 226.40 207.50
  Q 212.23 197.76 198.10 188.13
  Q 194.68 185.79 193.74 181.71
  A 1.01 1.01 3.8 0 0 193.10 180.98
  Q 190.74 180.09 188.94 180.44
  Q 184.79 181.26 181.25 183.54"
/>
<path stroke="#8fd3e1" vector-effect="non-scaling-stroke" d="
  M 205.25 244.04
  Q 204.33 243.93 204.50 243.04"
/>
<path stroke="#fad3cd" vector-effect="non-scaling-stroke" d="
  M 204.50 243.04
  L 211.11 238.75
  A 1.73 1.67 56.3 0 0 211.54 236.35
  Q 205.35 227.30 198.81 218.19
  Q 196.93 215.56 194.86 213.89
  Q 193.51 212.80 190.64 212.16
  Q 186.66 211.27 183.19 209.14
  Q 181.23 207.93 180.75 206.11
  Q 180.30 204.42 180.25 202.00
  Q 180.09 194.62 180.47 187.26
  Q 180.50 186.81 180.79 186.33
  Q 181.57 185.04 181.25 183.54"
/>
<path stroke="#8ba7af" vector-effect="non-scaling-stroke" d="
  M 204.50 243.04
  L 199.79 236.00"
/>
<path stroke="#82637d" vector-effect="non-scaling-stroke" d="
  M 81.00 233.79
  L 86.19 239.85
  A 0.60 0.54 -38.8 0 0 86.97 239.89
  Q 91.00 236.77 91.25 231.50
  A 2.67 1.09 -14.6 0 1 93.25 230.00
  Q 100.09 227.84 105.94 223.69
  Q 107.76 222.39 106.96 219.25"
/>
<path stroke="#7f566f" vector-effect="non-scaling-stroke" d="
  M 106.96 219.25
  L 107.00 200.89
  A 1.24 1.08 -71.8 0 0 106.63 200.01
  L 101.04 195.00"
/>
<path stroke="#8381a0" vector-effect="non-scaling-stroke" d="
  M 101.04 195.00
  Q 97.38 192.12 92.15 191.05
  A 0.91 0.91 23.4 0 0 91.24 191.41
  Q 89.63 193.71 86.99 194.98
  Q 78.88 198.89 70.02 203.09
  A 2.26 2.26 77.8 0 0 68.74 205.08
  Q 68.54 213.91 73.19 222.06
  Q 77.57 229.76 81.00 233.79"
/>
<path stroke="#fad3cd" vector-effect="non-scaling-stroke" d="
  M 101.04 195.00
  Q 100.42 196.15 100.50 198.25
  Q 100.73 204.54 100.35 215.22
  Q 100.23 218.54 99.23 220.06
  Q 97.75 222.31 94.75 223.00
  Q 92.84 223.44 85.37 223.96
  Q 84.39 224.03 84.23 224.32
  Q 83.98 224.79 85.38 225.74
  A 0.74 0.68 32.1 0 1 85.63 226.66
  L 81.75 233.71"
/>
<path stroke="#fde0db" vector-effect="non-scaling-stroke" d="
  M 81.75 233.71
  L 81.00 233.79"
/>
<path stroke="#f9b5a9" vector-effect="non-scaling-stroke" d="
  M 106.96 219.25
  Q 105.79 218.97 106.20 220.94
  A 1.56 1.55 68.5 0 1 105.49 222.58
  Q 99.31 226.41 93.72 228.57
  Q 93.30 228.73 92.76 228.67
  Q 90.98 228.46 90.33 229.73
  Q 90.28 229.84 89.96 232.32
  Q 89.61 235.05 86.94 237.06
  A 1.65 1.60 -40.3 0 1 84.79 236.92
  L 81.75 233.71"
/>
<path stroke="#451664" vector-effect="non-scaling-stroke" d="
  M 228.08 238.35
  Q 234.22 239.30 236.86 236.09
  Q 238.55 234.03 238.72 228.53
  Q 238.86 223.72 238.44 218.56
  Q 238.31 216.85 237.76 218.48
  Q 234.25 228.78 227.66 237.29
  A 0.66 0.66 -66.7 0 0 228.08 238.35"
/>
<path stroke="#451664" vector-effect="non-scaling-stroke" d="
  M 64.74 238.62
  Q 67.38 239.31 70.47 238.35
  A 0.34 0.33 -28.8 0 0 70.63 237.81
  Q 63.31 229.24 60.18 219.31
  Q 59.88 218.37 59.82 219.35
  Q 59.42 225.75 59.24 231.00
  Q 59.03 237.14 64.74 238.62"
/>
<path stroke="#3abfd5" vector-effect="non-scaling-stroke" d="
  M 246.46 79.00
  Q 245.27 78.80 244.22 79.22
  Q 242.32 79.97 242.19 80.00
  Q 239.88 80.46 237.50 80.29"
/>
<path stroke="#b0d6f2" vector-effect="non-scaling-stroke" d="
  M 92.46 89.75
  L 91.30 89.56
  A 0.98 0.70 -61.9 0 0 90.51 89.95
  Q 77.10 106.94 64.75 124.71"
/>
<path stroke="#84c6ed" vector-effect="non-scaling-stroke" d="
  M 64.75 124.71
  Q 57.70 133.53 50.80 143.89
  Q 50.26 144.71 50.01 145.66
  Q 49.75 146.64 49.04 146.50"
/>
<path stroke="#38c1d6" vector-effect="non-scaling-stroke" d="
  M 249.96 86.75
  Q 245.08 89.48 239.54 89.50"
/>
<path stroke="#41bdd4" vector-effect="non-scaling-stroke" d="
  M 248.46 179.00
  Q 245.17 183.60 240.29 180.50"
/>
<path stroke="#7cc7f5" vector-effect="non-scaling-stroke" d="
  M 77.75 141.54
  Q 77.29 141.79 76.79 141.75"
/>
<path stroke="#68b2e7" vector-effect="non-scaling-stroke" d="
  M 76.79 141.75
  Q 76.80 140.57 76.02 139.73
  Q 69.56 132.83 64.75 124.71"
/>
<path stroke="#51b7f0" vector-effect="non-scaling-stroke" d="
  M 76.79 141.75
  Q 75.61 145.37 76.89 149.18
  A 2.01 2.00 50.4 0 1 76.74 150.81
  Q 67.39 167.28 57.96 182.70
  Q 57.36 183.67 58.50 183.54"
/>
</g>
<path fill="#080442" d="
  M 131.31 0.00
  L 160.31 0.00
  Q 180.08 6.71 191.18 24.36
  Q 196.93 33.50 198.09 45.17
  A 1.13 1.11 6.5 0 0 198.86 46.12
  Q 214.82 51.26 229.54 60.75
  A 0.88 0.86 -47.9 0 0 230.55 60.69
  L 232.28 59.28
  Q 234.22 57.72 236.30 57.32
  Q 245.05 55.62 251.20 60.03
  Q 256.88 64.11 257.88 70.91
  Q 258.94 78.19 253.04 84.25
  Q 247.47 84.65 246.46 79.00
  Q 246.80 76.37 247.25 73.75
  Q 247.62 71.61 246.11 69.71
  Q 244.91 68.21 242.81 67.58
  Q 238.31 66.23 235.99 69.78
  Q 234.39 72.23 234.79 75.12
  Q 235.19 78.07 237.50 80.29
  Q 239.85 84.18 239.28 88.75
  Q 239.23 89.18 239.54 89.50
  Q 239.38 131.04 239.50 172.58
  Q 239.50 172.62 239.32 175.42
  Q 239.15 178.05 240.29 180.50
  Q 240.49 183.56 242.67 184.67
  Q 244.75 185.73 246.70 184.30
  Q 249.01 182.60 248.46 179.00
  Q 248.94 133.55 248.50 106.25
  Q 248.41 100.48 253.50 98.79
  L 258.50 100.21
  Q 257.50 100.29 258.32 100.84
  Q 258.61 101.04 258.86 101.46
  Q 259.20 102.06 259.79 101.75
  Q 260.14 141.87 260.01 181.99
  Q 259.99 188.94 259.65 189.97
  Q 258.11 194.67 250.56 193.49
  A 1.13 1.05 -71.5 0 0 249.43 194.10
  L 246.96 199.00
  Q 243.88 200.67 246.21 203.25
  Q 248.67 212.49 249.25 226.25
  Q 249.68 236.33 243.96 243.00
  L 236.54 248.25
  Q 228.60 250.60 219.69 247.65
  A 1.29 1.26 -54.0 0 0 218.52 247.85
  Q 198.28 263.48 174.94 270.00
  L 118.69 270.00
  Q 118.22 269.32 117.00 269.00
  Q 94.96 263.27 77.81 247.41
  A 1.32 0.87 56.6 0 0 76.95 247.04
  Q 75.93 247.08 75.25 248.04
  Q 69.63 249.61 63.75 249.46
  Q 54.54 247.65 50.39 239.91
  Q 49.05 237.41 48.95 233.69
  Q 48.76 226.47 49.04 219.25
  Q 49.95 218.95 49.85 218.00
  Q 49.76 217.09 49.77 216.99
  Q 49.93 211.86 49.46 206.75
  Q 50.11 204.25 49.56 203.19
  Q 39.22 183.07 37.75 161.75
  Q 37.15 153.09 38.11 140.51
  Q 39.38 123.63 46.25 108.21
  Q 49.95 102.09 52.71 95.50
  Q 55.21 91.29 57.93 87.21
  Q 60.10 83.96 61.98 83.25
  Q 64.99 82.11 68.25 84.79
  Q 70.62 89.24 67.31 93.81
  Q 50.67 116.83 49.04 146.50
  Q 47.93 167.67 55.37 188.06
  Q 55.56 188.59 55.84 188.12
  L 58.50 183.54
  L 78.07 150.95
  A 1.11 1.06 52.6 0 0 78.17 150.02
  Q 76.73 145.67 77.75 141.54
  Q 78.82 136.84 81.53 133.15
  Q 83.59 130.36 88.28 127.25
  Q 97.53 121.10 107.91 116.59
  A 0.43 0.42 55.2 0 0 108.03 115.90
  Q 103.58 111.53 99.96 107.07
  Q 93.82 99.49 92.46 89.75
  L 90.86 77.30
  A 1.02 0.99 0.1 0 0 89.98 76.44
  Q 85.56 75.88 82.79 76.75
  Q 82.82 75.99 82.18 75.58
  Q 80.05 74.22 79.46 71.75
  Q 79.44 68.17 82.14 66.33
  A 1.67 1.38 23.8 0 1 83.06 66.07
  Q 87.31 66.12 90.25 65.75
  Q 90.81 65.68 90.75 65.04
  Q 91.84 63.65 90.78 62.41
  A 1.23 0.97 -15.4 0 0 89.93 62.05
  Q 84.96 61.95 80.00 61.86
  Q 71.44 61.70 65.49 56.87
  Q 59.52 52.03 57.93 44.60
  Q 56.03 35.71 62.69 27.94
  Q 65.46 24.70 69.55 23.10
  Q 72.38 22.00 77.62 22.00
  Q 88.66 22.00 98.96 22.00
  Q 100.69 22.00 101.86 20.73
  Q 107.87 14.24 113.19 9.44
  Q 119.84 3.44 131.31 0.00
  Z
  M 163.25 44.04
  Q 174.98 51.03 185.71 60.53
  Q 186.19 60.95 186.31 60.32
  Q 189.70 42.01 179.04 27.00
  Q 165.87 8.50 144.24 9.09
  Q 136.87 9.30 130.59 11.97
  Q 124.19 14.69 118.56 19.49
  A 0.68 0.68 -53.1 0 0 118.72 20.62
  Q 142.11 31.32 163.25 44.04
  Z
  M 101.29 51.25
  Q 100.77 55.75 101.29 60.25
  Q 100.78 76.57 104.68 92.41
  Q 106.18 98.50 110.81 103.44
  Q 116.75 109.77 124.25 112.75
  Q 133.41 116.38 141.94 111.69
  Q 148.80 107.91 161.04 97.50
  Q 169.19 90.78 174.81 83.56
  Q 178.72 78.55 180.62 71.73
  A 1.04 0.76 -63.3 0 0 180.47 70.83
  L 178.75 68.96
  L 176.49 67.07
  A 0.63 0.60 -47.4 0 0 175.66 67.13
  L 171.06 71.85
  A 1.55 0.85 81.9 0 0 170.72 72.75
  Q 170.24 78.78 164.25 80.04
  Q 162.25 79.72 160.81 78.53
  Q 159.45 77.41 159.19 75.40
  Q 158.74 71.90 160.50 68.75
  Q 162.08 65.92 165.00 61.54
  L 166.23 60.02
  A 0.58 0.47 36.0 0 0 166.03 59.28
  Q 156.31 52.47 145.75 47.04
  Q 133.90 40.42 121.96 33.96
  Q 120.06 32.94 117.90 32.90
  Q 98.33 32.60 78.75 32.73
  Q 75.55 32.75 73.86 33.48
  Q 71.34 34.56 69.90 36.76
  Q 67.99 39.66 68.94 43.50
  Q 70.72 50.69 79.50 51.00
  Q 86.00 51.23 100.00 50.75
  Q 101.15 50.71 101.29 51.25
  Z
  M 223.79 70.26
  Q 211.66 62.14 198.23 57.99
  A 0.39 0.38 -78.7 0 0 197.74 58.32
  Q 197.34 62.58 195.87 66.88
  A 0.55 0.54 -73.3 0 0 196.24 67.58
  Q 211.20 71.66 224.77 79.16
  Q 225.43 79.53 225.31 78.74
  L 224.23 71.06
  A 1.25 0.88 -83.8 0 0 223.79 70.26
  Z
  M 189.29 80.25
  L 184.57 89.53
  A 0.49 0.48 -76.0 0 0 184.99 90.25
  L 211.50 90.21
  L 220.51 90.21
  Q 222.36 90.21 220.74 89.29
  Q 207.00 81.52 191.73 78.33
  Q 189.39 77.84 189.29 80.25
  Z
  M 181.94 105.07
  L 226.25 105.00
  A 2.00 1.62 9.3 0 0 228.00 104.00
  Q 228.50 102.86 228.14 101.78
  A 0.75 0.69 -8.6 0 0 227.44 101.31
  L 180.05 101.31
  A 0.42 0.41 -5.1 0 0 179.63 101.80
  Q 179.94 103.48 181.09 104.71
  A 1.19 1.09 -19.6 0 0 181.94 105.07
  Z
  M 162.25 111.29
  Q 155.65 116.19 148.58 120.31
  Q 141.86 124.23 136.71 125.00
  Q 129.12 126.14 121.50 123.54
  Q 120.14 122.77 120.14 123.85
  Q 120.14 124.68 120.13 124.78
  Q 119.82 127.78 120.55 132.38
  A 4.98 4.96 20.7 0 0 121.66 134.83
  Q 127.90 142.26 138.00 143.29
  Q 149.76 144.50 159.50 138.04
  L 163.85 134.80
  A 1.18 0.74 79.4 0 0 164.19 133.93
  L 164.25 110.40
  Q 164.25 109.87 163.82 110.17
  L 162.25 111.29
  Z
  M 210.71 137.00
  L 211.79 143.00
  Q 210.46 144.69 211.19 145.81
  Q 215.67 152.72 219.96 159.75
  L 224.71 168.25
  L 227.70 173.35
  Q 228.00 173.86 228.01 173.25
  Q 228.42 152.13 228.25 131.00
  Q 228.24 129.18 227.00 129.79
  Q 221.69 129.98 216.50 128.96
  Q 214.37 127.76 213.50 125.46
  Q 213.20 122.48 214.94 120.79
  Q 216.18 119.58 219.06 119.39
  Q 223.03 119.15 227.00 119.24
  A 1.24 0.96 16.8 0 0 227.87 118.91
  Q 228.61 118.08 228.05 117.15
  A 1.00 0.83 -13.3 0 0 227.25 116.75
  L 215.00 116.79
  L 177.59 116.58
  Q 175.23 116.57 177.49 117.25
  Q 186.36 119.92 194.53 124.17
  Q 201.70 127.91 203.57 129.22
  Q 207.90 132.27 210.71 137.00
  Z
  M 104.50 236.79
  L 99.98 238.52
  A 0.75 0.74 79.9 0 0 99.50 239.22
  L 99.50 248.23
  A 2.04 1.74 -76.5 0 0 100.34 249.88
  L 104.50 252.46
  Q 133.36 267.41 165.50 260.96
  Q 175.07 259.28 186.31 254.31
  Q 188.16 253.50 187.71 251.75
  L 187.69 228.30
  A 0.58 0.56 4.8 0 0 187.20 227.74
  Q 175.02 225.96 165.96 217.75
  Q 161.73 211.84 162.50 204.50
  Q 162.89 200.81 162.45 189.49
  Q 162.29 185.44 165.05 182.55
  Q 169.88 177.50 175.82 173.83
  Q 179.35 171.65 183.52 171.25
  A 1.34 1.33 -7.0 0 0 184.71 169.73
  Q 184.48 168.13 184.65 166.26
  Q 184.85 164.09 183.46 162.50
  Q 183.01 144.79 183.25 134.25
  Q 183.30 132.22 182.96 131.25
  Q 181.77 129.40 180.56 130.04
  Q 179.96 130.36 179.27 131.71
  Q 171.08 147.80 153.44 152.70
  Q 136.87 157.30 122.77 149.54
  Q 116.85 146.28 113.16 141.86
  Q 109.13 137.03 107.25 130.74
  Q 106.73 129.00 105.72 130.51
  Q 105.09 131.46 105.18 132.85
  Q 105.25 134.08 105.25 134.16
  Q 105.25 147.60 105.25 161.95
  A 0.92 0.92 -4.5 0 0 106.32 162.86
  Q 110.89 162.14 113.14 164.70
  Q 114.43 166.16 114.47 168.21
  Q 114.51 170.59 112.74 171.89
  Q 111.31 172.94 107.89 172.98
  Q 104.12 173.03 100.15 173.00
  A 0.63 0.62 0.5 0 0 99.51 173.62
  L 99.55 181.18
  A 0.86 0.82 14.3 0 0 100.01 181.92
  Q 106.11 185.03 111.14 189.60
  Q 114.90 193.00 116.03 194.70
  Q 118.07 197.74 118.05 201.75
  Q 118.00 211.63 118.10 221.50
  Q 118.13 225.00 115.95 227.69
  Q 111.23 233.51 104.50 236.79
  Z
  M 188.75 147.96
  Q 187.92 151.33 189.86 153.45
  Q 191.36 155.09 193.58 155.01
  Q 196.03 154.91 197.44 152.69
  Q 199.44 149.53 199.99 144.57
  Q 199.99 144.52 200.32 143.08
  Q 200.57 142.00 199.96 141.00
  Q 195.90 137.26 190.77 135.24
  A 0.39 0.37 -76.5 0 0 190.27 135.57
  L 188.75 147.96
  Z
  M 96.00 137.21
  L 92.46 140.00
  L 89.25 143.56
  A 1.42 0.70 77.4 0 0 89.02 144.50
  Q 89.26 151.27 90.81 154.44
  Q 92.49 157.87 96.25 156.62
  Q 99.34 155.59 100.00 152.50
  Q 100.76 148.96 99.80 145.13
  Q 98.70 140.76 98.75 136.23
  Q 98.77 134.71 97.66 135.71
  L 96.00 137.21
  Z
  M 199.86 173.29
  Q 200.89 175.90 202.69 177.31
  Q 211.46 184.18 225.59 193.97
  A 0.70 0.44 34.5 0 0 226.41 194.00
  Q 226.61 193.72 226.31 193.19
  Q 216.54 175.78 206.49 158.66
  A 0.29 0.29 0.0 0 0 205.99 158.66
  Q 202.65 164.53 197.75 168.25
  Q 196.05 169.54 196.57 171.28
  A 1.11 0.85 6.0 0 0 197.22 171.90
  L 199.22 172.62
  A 1.18 0.99 86.5 0 1 199.86 173.29
  Z
  M 75.75 188.54
  L 86.65 182.75
  A 2.31 2.06 77.4 0 0 87.75 180.78
  L 87.71 171.75
  L 87.72 168.30
  A 1.43 0.69 38.0 0 0 87.31 167.47
  L 84.13 163.84
  A 0.50 0.46 39.7 0 0 83.34 163.88
  Q 76.10 177.11 70.61 190.63
  Q 70.41 191.12 70.88 190.90
  L 75.75 188.54
  Z
  M 238.5535 175.1494
  A 5.98 0.93 89.2 0 0 239.3999 169.1570
  A 5.98 0.93 89.2 0 0 238.3865 163.1906
  A 5.98 0.93 89.2 0 0 237.5401 169.1830
  A 5.98 0.93 89.2 0 0 238.5535 175.1494
  Z
  M 181.25 183.54
  Q 177.78 185.12 174.45 188.43
  A 2.35 2.34 -22.4 0 0 173.75 190.10
  L 173.75 210.00
  A 1.68 1.68 -72.7 0 0 174.47 211.38
  Q 183.57 217.65 195.78 218.88
  A 0.81 0.81 -86.9 0 1 196.51 219.70
  Q 196.45 223.84 196.76 227.49
  Q 196.93 229.47 198.04 231.77
  Q 199.04 233.84 199.79 236.00
  L 199.48 247.24
  Q 199.46 247.86 199.95 247.54
  L 205.25 244.04
  Q 218.26 235.20 224.18 220.82
  Q 225.73 217.04 226.28 215.18
  Q 227.14 212.28 227.25 209.19
  A 1.96 1.96 -71.8 0 0 226.40 207.50
  Q 212.23 197.76 198.10 188.13
  Q 194.68 185.79 193.74 181.71
  A 1.01 1.01 3.8 0 0 193.10 180.98
  Q 190.74 180.09 188.94 180.44
  Q 184.79 181.26 181.25 183.54
  Z
  M 81.00 233.79
  L 86.19 239.85
  A 0.60 0.54 -38.8 0 0 86.97 239.89
  Q 91.00 236.77 91.25 231.50
  A 2.67 1.09 -14.6 0 1 93.25 230.00
  Q 100.09 227.84 105.94 223.69
  Q 107.76 222.39 106.96 219.25
  L 107.00 200.89
  A 1.24 1.08 -71.8 0 0 106.63 200.01
  L 101.04 195.00
  Q 97.38 192.12 92.15 191.05
  A 0.91 0.91 23.4 0 0 91.24 191.41
  Q 89.63 193.71 86.99 194.98
  Q 78.88 198.89 70.02 203.09
  A 2.26 2.26 77.8 0 0 68.74 205.08
  Q 68.54 213.91 73.19 222.06
  Q 77.57 229.76 81.00 233.79
  Z
  M 228.08 238.35
  Q 234.22 239.30 236.86 236.09
  Q 238.55 234.03 238.72 228.53
  Q 238.86 223.72 238.44 218.56
  Q 238.31 216.85 237.76 218.48
  Q 234.25 228.78 227.66 237.29
  A 0.66 0.66 -66.7 0 0 228.08 238.35
  Z
  M 64.74 238.62
  Q 67.38 239.31 70.47 238.35
  A 0.34 0.33 -28.8 0 0 70.63 237.81
  Q 63.31 229.24 60.18 219.31
  Q 59.88 218.37 59.82 219.35
  Q 59.42 225.75 59.24 231.00
  Q 59.03 237.14 64.74 238.62
  Z"
/>
<path fill="#beae93" d="
  M 179.04 27.00
  L 177.79 29.50
  Q 174.17 37.83 166.25 42.21
  L 164.29 42.70
  A 0.55 0.43 78.6 0 0 163.99 43.29
  Q 164.10 43.92 163.25 44.04
  Q 142.11 31.32 118.72 20.62
  A 0.68 0.68 -53.1 0 1 118.56 19.49
  Q 124.19 14.69 130.59 11.97
  Q 136.87 9.30 144.24 9.09
  Q 165.87 8.50 179.04 27.00
  Z"
/>
<path fill="#9b7d67" d="
  M 179.04 27.00
  Q 189.70 42.01 186.31 60.32
  Q 186.19 60.95 185.71 60.53
  Q 174.98 51.03 163.25 44.04
  Q 164.10 43.92 163.99 43.29
  A 0.55 0.43 78.6 0 1 164.29 42.70
  L 166.25 42.21
  Q 166.77 42.61 166.96 43.20
  A 1.86 0.98 86.5 0 0 167.45 44.01
  Q 174.35 49.64 181.35 55.14
  Q 186.45 59.15 186.19 52.94
  Q 185.79 43.26 181.20 32.95
  A 1.59 0.69 -68.4 0 1 181.17 32.02
  Q 181.30 31.33 180.50 31.25
  Q 179.15 31.11 177.79 29.50
  L 179.04 27.00
  Z"
/>
<path fill="#9b7d67" d="
  M 177.79 29.50
  Q 179.15 31.11 180.50 31.25
  Q 181.30 31.33 181.17 32.02
  A 1.59 0.69 -68.4 0 0 181.20 32.95
  Q 185.79 43.26 186.19 52.94
  Q 186.45 59.15 181.35 55.14
  Q 174.35 49.64 167.45 44.01
  A 1.86 0.98 86.5 0 1 166.96 43.20
  Q 166.77 42.61 166.25 42.21
  Q 174.17 37.83 177.79 29.50
  Z"
/>
<path fill="#9b7d67" d="
  M 145.75 47.04
  Q 144.96 48.67 146.69 48.81
  Q 148.15 48.93 148.81 50.94
  Q 149.13 51.90 148.25 52.54
  Q 138.23 48.45 127.49 50.47
  Q 122.96 51.32 118.50 52.54
  Q 115.56 51.72 112.50 51.95
  Q 106.83 52.37 101.29 51.25
  Q 101.15 50.71 100.00 50.75
  Q 86.00 51.23 79.50 51.00
  Q 70.72 50.69 68.94 43.50
  Q 67.99 39.66 69.90 36.76
  Q 71.34 34.56 73.86 33.48
  Q 75.55 32.75 78.75 32.73
  Q 98.33 32.60 117.90 32.90
  Q 120.06 32.94 121.96 33.96
  Q 133.90 40.42 145.75 47.04
  Z"
/>
<path fill="#f5a79b" d="
  M 145.75 47.04
  Q 156.31 52.47 166.03 59.28
  A 0.58 0.47 36.0 0 1 166.23 60.02
  L 165.00 61.54
  Q 163.46 62.11 162.00 61.00
  Q 156.21 56.60 148.25 52.54
  Q 149.13 51.90 148.81 50.94
  Q 148.15 48.93 146.69 48.81
  Q 144.96 48.67 145.75 47.04
  Z"
/>
<path fill="#fefefe" d="
  M 148.25 52.54
  Q 156.21 56.60 162.00 61.00
  Q 163.46 62.11 165.00 61.54
  Q 162.08 65.92 160.50 68.75
  Q 158.74 71.90 159.19 75.40
  Q 159.45 77.41 160.81 78.53
  Q 162.25 79.72 164.25 80.04
  Q 165.44 85.63 163.71 91.00
  Q 162.57 92.85 161.41 94.69
  Q 160.58 96.01 161.04 97.50
  Q 148.80 107.91 141.94 111.69
  Q 133.41 116.38 124.25 112.75
  Q 116.75 109.77 110.81 103.44
  Q 106.18 98.50 104.68 92.41
  Q 100.78 76.57 101.29 60.25
  Q 101.96 60.41 103.06 59.81
  Q 107.29 57.53 118.50 52.54
  Q 122.96 51.32 127.49 50.47
  Q 138.23 48.45 148.25 52.54
  Z"
/>
<path fill="#f5a79b" d="
  M 101.29 51.25
  Q 106.83 52.37 112.50 51.95
  Q 115.56 51.72 118.50 52.54
  Q 107.29 57.53 103.06 59.81
  Q 101.96 60.41 101.29 60.25
  Q 100.77 55.75 101.29 51.25
  Z"
/>
<path fill="#65d0e3" d="
  M 223.79 70.26
  A 1.25 0.88 -83.8 0 1 224.23 71.06
  L 225.31 78.74
  Q 225.43 79.53 224.77 79.16
  Q 211.20 71.66 196.24 67.58
  A 0.55 0.54 -73.3 0 1 195.87 66.88
  Q 197.34 62.58 197.74 58.32
  A 0.39 0.38 -78.7 0 1 198.23 57.99
  Q 211.66 62.14 223.79 70.26
  Z"
/>
<path fill="#9b7d67" d="
  M 90.75 65.04
  Q 90.81 65.68 90.25 65.75
  Q 87.31 66.12 83.06 66.07
  A 1.67 1.38 23.8 0 0 82.14 66.33
  Q 79.44 68.17 79.46 71.75
  Q 78.38 67.01 82.56 65.56
  Q 85.55 64.53 90.75 65.04
  Z"
/>
<path fill="#f5a79b" d="
  M 178.75 68.96
  Q 177.41 69.32 178.62 70.81
  A 2.28 2.28 35.1 0 1 179.00 72.98
  Q 175.34 83.46 166.25 90.75
  Q 165.17 91.62 163.71 91.00
  Q 165.44 85.63 164.25 80.04
  Q 170.24 78.78 170.72 72.75
  A 1.55 0.85 81.9 0 1 171.06 71.85
  L 175.66 67.13
  A 0.63 0.60 -47.4 0 1 176.49 67.07
  L 178.75 68.96
  Z"
/>
<path fill="#65d0e3" d="
  M 246.46 79.00
  Q 245.27 78.80 244.22 79.22
  Q 242.32 79.97 242.19 80.00
  Q 239.88 80.46 237.50 80.29
  Q 235.19 78.07 234.79 75.12
  Q 234.39 72.23 235.99 69.78
  Q 238.31 66.23 242.81 67.58
  Q 244.91 68.21 246.11 69.71
  Q 247.62 71.61 247.25 73.75
  Q 246.80 76.37 246.46 79.00
  Z"
/>
<path fill="#fcc2b7" d="
  M 178.75 68.96
  L 180.47 70.83
  A 1.04 0.76 -63.3 0 1 180.62 71.73
  Q 178.72 78.55 174.81 83.56
  Q 169.19 90.78 161.04 97.50
  Q 160.58 96.01 161.41 94.69
  Q 162.57 92.85 163.71 91.00
  Q 165.17 91.62 166.25 90.75
  Q 175.34 83.46 179.00 72.98
  A 2.28 2.28 35.1 0 0 178.62 70.81
  Q 177.41 69.32 178.75 68.96
  Z"
/>
<path fill="#cce9f8" d="
  M 92.46 89.75
  L 91.30 89.56
  A 0.98 0.70 -61.9 0 0 90.51 89.95
  Q 77.10 106.94 64.75 124.71
  Q 57.70 133.53 50.80 143.89
  Q 50.26 144.71 50.01 145.66
  Q 49.75 146.64 49.04 146.50
  Q 50.67 116.83 67.31 93.81
  Q 70.62 89.24 68.25 84.79
  Q 74.29 81.27 80.69 78.44
  Q 81.63 78.02 82.79 76.75
  Q 85.56 75.88 89.98 76.44
  A 1.02 0.99 0.1 0 1 90.86 77.30
  L 92.46 89.75
  Z"
/>
<path fill="#cf4f9c" d="
  M 211.50 90.21
  L 214.45 89.93
  Q 215.00 89.88 214.71 89.51
  Q 214.51 89.26 214.25 89.25
  Q 210.07 89.11 204.69 86.31
  Q 201.07 84.43 191.80 81.82
  Q 191.62 81.77 190.96 81.34
  L 189.29 80.25
  Q 189.39 77.84 191.73 78.33
  Q 207.00 81.52 220.74 89.29
  Q 222.36 90.21 220.51 90.21
  L 211.50 90.21
  Z"
/>
<path fill="#0faec7" d="
  M 246.46 79.00
  Q 247.47 84.65 253.04 84.25
  Q 251.12 85.08 249.96 86.75
  Q 245.08 89.48 239.54 89.50
  Q 239.23 89.18 239.28 88.75
  Q 239.85 84.18 237.50 80.29
  Q 239.88 80.46 242.19 80.00
  Q 242.32 79.97 244.22 79.22
  Q 245.27 78.80 246.46 79.00
  Z"
/>
<path fill="#ec6dac" d="
  M 189.29 80.25
  L 190.96 81.34
  Q 191.62 81.77 191.80 81.82
  Q 201.07 84.43 204.69 86.31
  Q 210.07 89.11 214.25 89.25
  Q 214.51 89.26 214.71 89.51
  Q 215.00 89.88 214.45 89.93
  L 211.50 90.21
  L 184.99 90.25
  A 0.49 0.48 -76.0 0 1 184.57 89.53
  L 189.29 80.25
  Z"
/>
<path fill="#61d3e4" d="
  M 249.96 86.75
  Q 252.28 91.05 252.29 96.00
  Q 252.30 97.67 253.50 98.79
  Q 248.41 100.48 248.50 106.25
  Q 248.94 133.55 248.46 179.00
  Q 245.17 183.60 240.29 180.50
  Q 239.15 178.05 239.32 175.42
  Q 239.50 172.62 239.50 172.58
  Q 239.38 131.04 239.54 89.50
  Q 245.08 89.48 249.96 86.75
  Z"
/>
<path fill="#93c2eb" d="
  M 92.46 89.75
  Q 93.82 99.49 99.96 107.07
  Q 103.58 111.53 108.03 115.90
  A 0.43 0.42 55.2 0 1 107.91 116.59
  Q 97.53 121.10 88.28 127.25
  Q 83.59 130.36 81.53 133.15
  Q 78.82 136.84 77.75 141.54
  Q 77.29 141.79 76.79 141.75
  Q 76.80 140.57 76.02 139.73
  Q 69.56 132.83 64.75 124.71
  Q 77.10 106.94 90.51 89.95
  A 0.98 0.70 -61.9 0 1 91.30 89.56
  L 92.46 89.75
  Z"
/>
<path fill="#4d3f52" fill-opacity="0.988" d="
  M 52.71 95.50
  Q 49.95 102.09 46.25 108.21
  Q 48.77 101.49 52.71 95.50
  Z"
/>
<path fill="#9b7d67" d="
  M 258.50 100.21
  Q 259.69 100.50 259.79 101.75
  Q 259.20 102.06 258.86 101.46
  Q 258.61 101.04 258.32 100.84
  Q 257.50 100.29 258.50 100.21
  Z"
/>
<path fill="#ee78bf" d="
  M 181.09 104.71
  Q 179.94 103.48 179.63 101.80
  A 0.42 0.41 -5.1 0 1 180.05 101.31
  L 227.44 101.31
  A 0.75 0.69 -8.6 0 1 228.14 101.78
  Q 228.50 102.86 228.00 104.00
  A 2.00 1.62 9.3 0 1 226.25 105.00
  L 181.94 105.07
  A 1.19 1.09 -19.6 0 1 181.09 104.71
  Z"
/>
<path fill="#fcc2b7" d="
  M 159.50 138.04
  Q 158.98 137.78 158.79 137.25
  Q 159.91 137.11 160.55 136.23
  Q 160.86 135.81 161.26 135.58
  Q 163.40 134.38 163.21 132.07
  Q 163.07 130.36 163.07 130.30
  Q 163.12 124.36 163.02 118.43
  Q 163.02 118.31 163.23 115.60
  Q 163.41 113.34 162.25 111.29
  L 163.82 110.17
  Q 164.25 109.87 164.25 110.40
  L 164.19 133.93
  A 1.18 0.74 79.4 0 1 163.85 134.80
  L 159.50 138.04
  Z"
/>
<path fill="#f5a79b" d="
  M 162.25 111.29
  Q 163.41 113.34 163.23 115.60
  Q 163.02 118.31 163.02 118.43
  Q 163.12 124.36 163.07 130.30
  Q 163.07 130.36 163.21 132.07
  Q 163.40 134.38 161.26 135.58
  Q 160.86 135.81 160.55 136.23
  Q 159.91 137.11 158.79 137.25
  Q 157.88 136.81 158.50 136.00
  Q 158.50 129.00 158.50 122.13
  Q 158.50 121.52 158.01 121.88
  Q 153.16 125.50 147.92 128.37
  Q 140.60 132.38 136.96 133.14
  Q 128.43 134.93 122.06 127.19
  Q 120.79 125.63 121.50 123.54
  Q 129.12 126.14 136.71 125.00
  Q 141.86 124.23 148.58 120.31
  Q 155.65 116.19 162.25 111.29
  Z"
/>
<path fill="#0faec7" d="
  M 215.00 116.79
  Q 215.12 119.10 214.29 119.72
  A 4.76 4.74 82.0 0 0 212.69 121.85
  Q 211.47 125.11 213.50 125.46
  Q 214.37 127.76 216.50 128.96
  Q 213.29 131.59 211.85 135.48
  Q 211.69 135.93 211.34 136.28
  Q 211.02 136.62 210.71 137.00
  Q 207.90 132.27 203.57 129.22
  Q 201.70 127.91 194.53 124.17
  Q 186.36 119.92 177.49 117.25
  Q 175.23 116.57 177.59 116.58
  L 215.00 116.79
  Z"
/>
<path fill="#20a7c3" d="
  M 215.00 116.79
  L 227.25 116.75
  A 1.00 0.83 -13.3 0 1 228.05 117.15
  Q 228.61 118.08 227.87 118.91
  A 1.24 0.96 16.8 0 1 227.00 119.24
  Q 223.03 119.15 219.06 119.39
  Q 216.18 119.58 214.94 120.79
  Q 213.20 122.48 213.50 125.46
  Q 211.47 125.11 212.69 121.85
  A 4.76 4.74 82.0 0 1 214.29 119.72
  Q 215.12 119.10 215.00 116.79
  Z"
/>
<path fill="#fefefe" d="
  M 158.79 137.25
  Q 158.98 137.78 159.50 138.04
  Q 149.76 144.50 138.00 143.29
  Q 127.90 142.26 121.66 134.83
  A 4.98 4.96 20.7 0 1 120.55 132.38
  Q 119.82 127.78 120.13 124.78
  Q 120.14 124.68 120.14 123.85
  Q 120.14 122.77 121.50 123.54
  Q 120.79 125.63 122.06 127.19
  Q 128.43 134.93 136.96 133.14
  Q 140.60 132.38 147.92 128.37
  Q 153.16 125.50 158.01 121.88
  Q 158.50 121.52 158.50 122.13
  Q 158.50 129.00 158.50 136.00
  Q 157.88 136.81 158.79 137.25
  Z"
/>
<path fill="#3ca2e2" d="
  M 64.75 124.71
  Q 69.56 132.83 76.02 139.73
  Q 76.80 140.57 76.79 141.75
  Q 75.61 145.37 76.89 149.18
  A 2.01 2.00 50.4 0 1 76.74 150.81
  Q 67.39 167.28 57.96 182.70
  Q 57.36 183.67 58.50 183.54
  L 55.84 188.12
  Q 55.56 188.59 55.37 188.06
  Q 47.93 167.67 49.04 146.50
  Q 49.75 146.64 50.01 145.66
  Q 50.26 144.71 50.80 143.89
  Q 57.70 133.53 64.75 124.71
  Z"
/>
<path fill="#61d3e4" d="
  M 216.50 128.96
  Q 221.69 129.98 227.00 129.79
  Q 227.00 146.42 227.00 163.05
  Q 227.00 163.13 227.16 164.94
  Q 227.40 167.55 224.71 168.25
  L 219.96 159.75
  Q 219.88 150.11 213.25 143.25
  Q 212.84 142.82 211.79 143.00
  L 210.71 137.00
  Q 211.02 136.62 211.34 136.28
  Q 211.69 135.93 211.85 135.48
  Q 213.29 131.59 216.50 128.96
  Z"
/>
<path fill="#74effa" d="
  M 224.71 168.25
  Q 227.40 167.55 227.16 164.94
  Q 227.00 163.13 227.00 163.05
  Q 227.00 146.42 227.00 129.79
  Q 228.24 129.18 228.25 131.00
  Q 228.42 152.13 228.01 173.25
  Q 228.00 173.86 227.70 173.35
  L 224.71 168.25
  Z"
/>
<path fill="#65d0e3" d="
  M 182.96 131.25
  Q 182.66 131.19 182.43 131.28
  A 0.85 0.52 84.6 0 0 182.06 132.03
  L 182.00 161.71
  Q 173.20 162.04 171.25 162.50
  Q 167.93 163.28 166.41 166.44
  Q 165.54 168.24 165.37 172.20
  Q 165.21 175.70 165.06 179.20
  Q 164.96 181.57 166.62 179.87
  Q 170.16 176.23 174.70 172.96
  Q 177.67 170.82 181.23 170.10
  Q 182.46 169.86 182.89 169.27
  Q 183.52 168.44 183.35 167.24
  Q 183.28 166.74 183.43 166.28
  Q 184.08 164.29 182.79 162.50
  L 183.46 162.50
  Q 184.85 164.09 184.65 166.26
  Q 184.48 168.13 184.71 169.73
  A 1.34 1.33 -7.0 0 1 183.52 171.25
  Q 179.35 171.65 175.82 173.83
  Q 169.88 177.50 165.05 182.55
  Q 162.29 185.44 162.45 189.49
  Q 162.89 200.81 162.50 204.50
  Q 161.73 211.84 165.96 217.75
  Q 165.50 218.79 165.50 221.25
  Q 165.50 231.37 165.50 241.50
  Q 165.50 244.40 166.25 245.71
  Q 135.72 245.83 129.75 245.75
  Q 127.50 245.72 126.05 246.76
  Q 124.67 247.76 124.38 249.82
  Q 123.95 252.81 126.07 254.67
  Q 127.60 256.02 130.42 256.32
  Q 132.50 256.54 135.25 256.50
  Q 140.22 256.42 165.25 256.54
  Q 164.89 258.76 165.50 260.96
  Q 133.36 267.41 104.50 252.46
  Q 105.36 251.44 105.25 250.25
  Q 105.07 248.30 105.07 248.22
  Q 105.41 243.28 105.21 238.32
  A 1.59 0.86 36.5 0 0 104.82 237.49
  Q 104.57 237.19 104.50 236.79
  Q 111.23 233.51 115.95 227.69
  Q 118.13 225.00 118.10 221.50
  Q 118.00 211.63 118.05 201.75
  Q 118.07 197.74 116.03 194.70
  Q 114.90 193.00 111.14 189.60
  Q 106.11 185.03 100.01 181.92
  A 0.86 0.82 14.3 0 1 99.55 181.18
  L 99.51 173.62
  A 0.63 0.62 0.5 0 1 100.15 173.00
  Q 104.12 173.03 107.89 172.98
  Q 111.31 172.94 112.74 171.89
  Q 114.51 170.59 114.47 168.21
  Q 114.43 166.16 113.14 164.70
  Q 110.89 162.14 106.32 162.86
  A 0.92 0.92 -4.5 0 1 105.25 161.95
  Q 105.25 147.60 105.25 134.16
  Q 105.25 134.08 105.18 132.85
  Q 105.09 131.46 105.72 130.51
  Q 106.73 129.00 107.25 130.74
  Q 109.13 137.03 113.16 141.86
  Q 116.85 146.28 122.77 149.54
  Q 136.87 157.30 153.44 152.70
  Q 171.08 147.80 179.27 131.71
  Q 179.96 130.36 180.56 130.04
  Q 181.77 129.40 182.96 131.25
  Z"
/>
<path fill="#74effa" d="
  M 182.96 131.25
  Q 183.30 132.22 183.25 134.25
  Q 183.01 144.79 183.46 162.50
  L 182.79 162.50
  Q 182.50 162.00 182.00 161.71
  L 182.06 132.03
  A 0.85 0.52 84.6 0 1 182.43 131.28
  Q 182.66 131.19 182.96 131.25
  Z"
/>
<path fill="#ec6dac" d="
  M 199.96 141.00
  Q 198.67 141.25 198.81 142.33
  Q 198.91 143.05 198.84 143.29
  L 196.37 151.97
  A 1.49 1.15 -13.8 0 1 195.77 152.72
  Q 191.79 155.31 189.94 150.97
  Q 189.78 150.60 189.84 150.00
  Q 189.97 148.63 188.75 147.96
  L 190.27 135.57
  A 0.39 0.37 -76.5 0 1 190.77 135.24
  Q 195.90 137.26 199.96 141.00
  Z"
/>
<path fill="#ee78bf" d="
  M 92.46 140.00
  Q 92.45 142.53 90.83 144.39
  A 1.32 1.14 -29.3 0 0 90.52 145.24
  Q 90.75 150.01 92.57 154.45
  Q 93.31 156.27 95.23 155.88
  Q 98.23 155.26 98.77 151.86
  Q 99.24 148.91 98.47 146.03
  Q 97.81 143.56 97.25 139.00
  Q 97.06 137.49 96.00 137.21
  L 97.66 135.71
  Q 98.77 134.71 98.75 136.23
  Q 98.70 140.76 99.80 145.13
  Q 100.76 148.96 100.00 152.50
  Q 99.34 155.59 96.25 156.62
  Q 92.49 157.87 90.81 154.44
  Q 89.26 151.27 89.02 144.50
  A 1.42 0.70 77.4 0 1 89.25 143.56
  L 92.46 140.00
  Z"
/>
<path fill="#ec6dac" d="
  M 96.00 137.21
  Q 97.06 137.49 97.25 139.00
  Q 97.81 143.56 98.47 146.03
  Q 99.24 148.91 98.77 151.86
  Q 98.23 155.26 95.23 155.88
  Q 93.31 156.27 92.57 154.45
  Q 90.75 150.01 90.52 145.24
  A 1.32 1.14 -29.3 0 1 90.83 144.39
  Q 92.45 142.53 92.46 140.00
  L 96.00 137.21
  Z"
/>
<path fill="#ee78bf" d="
  M 199.96 141.00
  Q 200.57 142.00 200.32 143.08
  Q 199.99 144.52 199.99 144.57
  Q 199.44 149.53 197.44 152.69
  Q 196.03 154.91 193.58 155.01
  Q 191.36 155.09 189.86 153.45
  Q 187.92 151.33 188.75 147.96
  Q 189.97 148.63 189.84 150.00
  Q 189.78 150.60 189.94 150.97
  Q 191.79 155.31 195.77 152.72
  A 1.49 1.15 -13.8 0 0 196.37 151.97
  L 198.84 143.29
  Q 198.91 143.05 198.81 142.33
  Q 198.67 141.25 199.96 141.00
  Z"
/>
<path fill="#65cbfe" d="
  M 77.75 141.54
  Q 76.73 145.67 78.17 150.02
  A 1.11 1.06 52.6 0 1 78.07 150.95
  L 58.50 183.54
  Q 57.36 183.67 57.96 182.70
  Q 67.39 167.28 76.74 150.81
  A 2.01 2.00 50.4 0 0 76.89 149.18
  Q 75.61 145.37 76.79 141.75
  Q 77.29 141.79 77.75 141.54
  Z"
/>
<path fill="#20a7c3" d="
  M 211.79 143.00
  Q 212.84 142.82 213.25 143.25
  Q 219.88 150.11 219.96 159.75
  Q 215.67 152.72 211.19 145.81
  Q 210.46 144.69 211.79 143.00
  Z"
/>
<path fill="#0faec7" d="
  M 199.22 172.62
  L 197.22 171.90
  A 1.11 0.85 6.0 0 1 196.57 171.28
  Q 196.05 169.54 197.75 168.25
  Q 202.65 164.53 205.99 158.66
  A 0.29 0.29 -0.0 0 1 206.49 158.66
  Q 216.54 175.78 226.31 193.19
  Q 226.61 193.72 226.41 194.00
  A 0.70 0.44 34.5 0 1 225.59 193.97
  Q 211.46 184.18 202.69 177.31
  Q 200.89 175.90 199.86 173.29
  A 1.18 0.99 86.5 0 0 199.22 172.62
  Z"
/>
<path fill="#0faec7" d="
  M 182.00 161.71
  Q 182.50 162.00 182.79 162.50
  Q 184.08 164.29 183.43 166.28
  Q 183.28 166.74 183.35 167.24
  Q 183.52 168.44 182.89 169.27
  Q 182.46 169.86 181.23 170.10
  Q 177.67 170.82 174.70 172.96
  Q 170.16 176.23 166.62 179.87
  Q 164.96 181.57 165.06 179.20
  Q 165.21 175.70 165.37 172.20
  Q 165.54 168.24 166.41 166.44
  Q 167.93 163.28 171.25 162.50
  Q 173.20 162.04 182.00 161.71
  Z"
/>
<path fill="#61d3e4" d="
  M 87.71 171.75
  Q 86.82 170.44 85.95 172.80
  Q 85.70 173.47 85.75 174.05
  L 86.29 180.35
  A 1.94 1.82 73.4 0 1 85.38 182.17
  Q 81.31 184.46 77.06 186.79
  Q 76.89 186.88 76.01 187.21
  Q 74.96 187.60 75.75 188.54
  L 70.88 190.90
  Q 70.41 191.12 70.61 190.63
  Q 76.10 177.11 83.34 163.88
  A 0.50 0.46 39.7 0 1 84.13 163.84
  L 87.31 167.47
  A 1.43 0.69 38.0 0 1 87.72 168.30
  L 87.71 171.75
  Z"
/>
<ellipse fill="#080442" cx="0.00" cy="0.00" transform="translate(238.47,169.17) rotate(89.2)" rx="5.98" ry="0.93"/>
<path fill="#74effa" d="
  M 87.71 171.75
  L 87.75 180.78
  A 2.31 2.06 77.4 0 1 86.65 182.75
  L 75.75 188.54
  Q 74.96 187.60 76.01 187.21
  Q 76.89 186.88 77.06 186.79
  Q 81.31 184.46 85.38 182.17
  A 1.94 1.82 73.4 0 0 86.29 180.35
  L 85.75 174.05
  Q 85.70 173.47 85.95 172.80
  Q 86.82 170.44 87.71 171.75
  Z"
/>
<path fill="#20a7c3" d="
  M 248.46 179.00
  Q 249.01 182.60 246.70 184.30
  Q 244.75 185.73 242.67 184.67
  Q 240.49 183.56 240.29 180.50
  Q 245.17 183.60 248.46 179.00
  Z"
/>
<path fill="#fefefe" d="
  M 205.25 244.04
  Q 204.33 243.93 204.50 243.04
  L 211.11 238.75
  A 1.73 1.67 56.3 0 0 211.54 236.35
  Q 205.35 227.30 198.81 218.19
  Q 196.93 215.56 194.86 213.89
  Q 193.51 212.80 190.64 212.16
  Q 186.66 211.27 183.19 209.14
  Q 181.23 207.93 180.75 206.11
  Q 180.30 204.42 180.25 202.00
  Q 180.09 194.62 180.47 187.26
  Q 180.50 186.81 180.79 186.33
  Q 181.57 185.04 181.25 183.54
  Q 184.79 181.26 188.94 180.44
  Q 190.74 180.09 193.10 180.98
  A 1.01 1.01 3.8 0 1 193.74 181.71
  Q 194.68 185.79 198.10 188.13
  Q 212.23 197.76 226.40 207.50
  A 1.96 1.96 -71.8 0 1 227.25 209.19
  Q 227.14 212.28 226.28 215.18
  Q 225.73 217.04 224.18 220.82
  Q 218.26 235.20 205.25 244.04
  Z"
/>
<path fill="#f5a79b" d="
  M 181.25 183.54
  Q 181.57 185.04 180.79 186.33
  Q 180.50 186.81 180.47 187.26
  Q 180.09 194.62 180.25 202.00
  Q 180.30 204.42 180.75 206.11
  Q 181.23 207.93 183.19 209.14
  Q 186.66 211.27 190.64 212.16
  Q 193.51 212.80 194.86 213.89
  Q 196.93 215.56 198.81 218.19
  Q 205.35 227.30 211.54 236.35
  A 1.73 1.67 56.3 0 1 211.11 238.75
  L 204.50 243.04
  L 199.79 236.00
  Q 199.04 233.84 198.04 231.77
  Q 196.93 229.47 196.76 227.49
  Q 196.45 223.84 196.51 219.70
  A 0.81 0.81 -86.9 0 0 195.78 218.88
  Q 183.57 217.65 174.47 211.38
  A 1.68 1.68 -72.7 0 1 173.75 210.00
  L 173.75 190.10
  A 2.35 2.34 -22.4 0 1 174.45 188.43
  Q 177.78 185.12 181.25 183.54
  Z"
/>
<path fill="#fefefe" d="
  M 101.04 195.00
  Q 100.42 196.15 100.50 198.25
  Q 100.73 204.54 100.35 215.22
  Q 100.23 218.54 99.23 220.06
  Q 97.75 222.31 94.75 223.00
  Q 92.84 223.44 85.37 223.96
  Q 84.39 224.03 84.23 224.32
  Q 83.98 224.79 85.38 225.74
  A 0.74 0.68 32.1 0 1 85.63 226.66
  L 81.75 233.71
  L 81.00 233.79
  Q 77.57 229.76 73.19 222.06
  Q 68.54 213.91 68.74 205.08
  A 2.26 2.26 77.8 0 1 70.02 203.09
  Q 78.88 198.89 86.99 194.98
  Q 89.63 193.71 91.24 191.41
  A 0.91 0.91 23.4 0 1 92.15 191.05
  Q 97.38 192.12 101.04 195.00
  Z"
/>
<path fill="#f5a79b" d="
  M 101.04 195.00
  L 106.63 200.01
  A 1.24 1.08 -71.8 0 1 107.00 200.89
  L 106.96 219.25
  Q 105.79 218.97 106.20 220.94
  A 1.56 1.55 68.5 0 1 105.49 222.58
  Q 99.31 226.41 93.72 228.57
  Q 93.30 228.73 92.76 228.67
  Q 90.98 228.46 90.33 229.73
  Q 90.28 229.84 89.96 232.32
  Q 89.61 235.05 86.94 237.06
  A 1.65 1.60 -40.3 0 1 84.79 236.92
  L 81.75 233.71
  L 85.63 226.66
  A 0.74 0.68 32.1 0 0 85.38 225.74
  Q 83.98 224.79 84.23 224.32
  Q 84.39 224.03 85.37 223.96
  Q 92.84 223.44 94.75 223.00
  Q 97.75 222.31 99.23 220.06
  Q 100.23 218.54 100.35 215.22
  Q 100.73 204.54 100.50 198.25
  Q 100.42 196.15 101.04 195.00
  Z"
/>
<path fill="#9b7d67" d="
  M 246.96 199.00
  Q 245.69 200.97 246.21 203.25
  Q 243.88 200.67 246.96 199.00
  Z"
/>
<path fill="#4d3f52" fill-opacity="0.988" d="
  M 49.46 206.75
  Q 49.93 211.86 49.77 216.99
  Q 49.76 217.09 49.85 218.00
  Q 49.95 218.95 49.04 219.25
  Q 48.65 212.97 49.46 206.75
  Z"
/>
<path fill="#0faec7" d="
  M 165.96 217.75
  Q 175.02 225.96 187.20 227.74
  A 0.58 0.56 4.8 0 1 187.69 228.30
  L 187.71 251.75
  Q 181.50 255.13 174.78 257.34
  Q 173.48 257.77 173.46 256.50
  A 1.71 1.38 -67.2 0 0 173.20 255.60
  L 172.46 254.50
  Q 175.55 249.82 171.25 246.50
  Q 169.76 245.35 166.25 245.71
  Q 165.50 244.40 165.50 241.50
  Q 165.50 231.37 165.50 221.25
  Q 165.50 218.79 165.96 217.75
  Z"
/>
<path fill="#822786" d="
  M 228.08 238.35
  A 0.66 0.66 -66.7 0 1 227.66 237.29
  Q 234.25 228.78 237.76 218.48
  Q 238.31 216.85 238.44 218.56
  Q 238.86 223.72 238.72 228.53
  Q 238.55 234.03 236.86 236.09
  Q 234.22 239.30 228.08 238.35
  Z"
/>
<path fill="#822786" d="
  M 64.74 238.62
  Q 59.03 237.14 59.24 231.00
  Q 59.42 225.75 59.82 219.35
  Q 59.88 218.37 60.18 219.31
  Q 63.31 229.24 70.63 237.81
  A 0.34 0.33 -28.8 0 1 70.47 238.35
  Q 67.38 239.31 64.74 238.62
  Z"
/>
<path fill="#fcc2b7" d="
  M 106.96 219.25
  Q 107.76 222.39 105.94 223.69
  Q 100.09 227.84 93.25 230.00
  A 2.67 1.09 -14.6 0 0 91.25 231.50
  Q 91.00 236.77 86.97 239.89
  A 0.60 0.54 -38.8 0 1 86.19 239.85
  L 81.00 233.79
  L 81.75 233.71
  L 84.79 236.92
  A 1.65 1.60 -40.3 0 0 86.94 237.06
  Q 89.61 235.05 89.96 232.32
  Q 90.28 229.84 90.33 229.73
  Q 90.98 228.46 92.76 228.67
  Q 93.30 228.73 93.72 228.57
  Q 99.31 226.41 105.49 222.58
  A 1.56 1.55 68.5 0 0 106.20 220.94
  Q 105.79 218.97 106.96 219.25
  Z"
/>
<path fill="#20a7c3" d="
  M 199.79 236.00
  L 204.50 243.04
  Q 204.33 243.93 205.25 244.04
  L 199.95 247.54
  Q 199.46 247.86 199.48 247.24
  L 199.79 236.00
  Z"
/>
<path fill="#20a7c3" d="
  M 104.50 236.79
  Q 104.57 237.19 104.82 237.49
  A 1.59 0.86 36.5 0 1 105.21 238.32
  Q 105.41 243.28 105.07 248.22
  Q 105.07 248.30 105.25 250.25
  Q 105.36 251.44 104.50 252.46
  L 100.34 249.88
  A 2.04 1.74 -76.5 0 1 99.50 248.23
  L 99.50 239.22
  A 0.75 0.74 79.9 0 1 99.98 238.52
  L 104.50 236.79
  Z"
/>
<path fill="#4d3f52" fill-opacity="0.988" d="
  M 243.96 243.00
  Q 241.23 246.99 236.54 248.25
  L 243.96 243.00
  Z"
/>
<path fill="#080442" d="
  M 166.25 245.71
  Q 169.76 245.35 171.25 246.50
  Q 175.55 249.82 172.46 254.50
  Q 169.36 257.02 165.25 256.54
  Q 140.22 256.42 135.25 256.50
  Q 132.50 256.54 130.42 256.32
  Q 127.60 256.02 126.07 254.67
  Q 123.95 252.81 124.38 249.82
  Q 124.67 247.76 126.05 246.76
  Q 127.50 245.72 129.75 245.75
  Q 135.72 245.83 166.25 245.71
  Z"
/>
<path fill="#4d3f52" fill-opacity="0.988" d="
  M 75.25 248.04
  Q 69.83 251.13 63.75 249.46
  Q 69.63 249.61 75.25 248.04
  Z"
/>
<path fill="#20a7c3" d="
  M 187.71 251.75
  Q 188.16 253.50 186.31 254.31
  Q 175.07 259.28 165.50 260.96
  Q 164.89 258.76 165.25 256.54
  Q 169.36 257.02 172.46 254.50
  L 173.20 255.60
  A 1.71 1.38 -67.2 0 1 173.46 256.50
  Q 173.48 257.77 174.78 257.34
  Q 181.50 255.13 187.71 251.75
  Z"
/>
</svg>
