<?xml version="1.0" encoding="UTF-8" standalone="no"?>
<!DOCTYPE svg PUBLIC "-//W3C//DTD SVG 1.1//EN" "http://www.w3.org/Graphics/SVG/1.1/DTD/svg11.dtd">
<svg xmlns="http://www.w3.org/2000/svg" version="1.1" viewBox="0 0 228 190">
<g stroke-width="2.00" fill="none" stroke-linecap="butt">
<path stroke="#3b3b5a" stroke-opacity="0.996" vector-effect="non-scaling-stroke" d="
  M 54.06 0.00
  Q 51.61 1.57 48.75 0.79"
/>
<path stroke="#06082b" vector-effect="non-scaling-stroke" d="
  M 59.06 0.00
  Q 59.51 0.77 60.25 0.25
  Q 64.48 0.25 68.71 0.25
  Q 68.81 0.25 73.76 0.53
  Q 76.92 0.71 80.06 0.00"
/>
<path stroke="#658395" vector-effect="non-scaling-stroke" d="
  M 82.31 0.00
  Q 83.39 3.59 79.25 3.25
  Q 73.72 2.80 56.52 3.99
  Q 51.15 4.36 45.94 5.69
  Q 29.63 9.86 20.29 23.77
  Q 18.43 26.54 16.04 24.00"
/>
<path stroke="#648390" vector-effect="non-scaling-stroke" d="
  M 113.06 0.00
  L 113.25 2.69
  A 0.56 0.53 -1.6 0 0 113.81 3.19
  L 176.25 3.29"
/>
<path stroke="#7bfbfb" vector-effect="non-scaling-stroke" d="
  M 176.25 3.29
  Q 176.45 4.12 175.69 4.44
  Q 169.00 7.24 164.68 13.48
  Q 154.21 28.61 158.14 46.76
  A 1.55 0.48 38.2 0 0 158.67 47.53
  Q 159.02 47.89 159.04 48.50"
/>
<path stroke="#658395" vector-effect="non-scaling-stroke" d="
  M 159.04 48.50
  L 140.79 67.50"
/>
<path stroke="#dffefb" vector-effect="non-scaling-stroke" d="
  M 140.79 67.50
  Q 138.27 65.01 138.50 61.63
  Q 138.66 59.21 138.48 58.37
  Q 138.15 56.75 137.56 55.19
  Q 137.79 54.46 136.79 54.75"
/>
<path stroke="#648397" vector-effect="non-scaling-stroke" d="
  M 136.79 54.75
  Q 137.05 53.88 137.33 53.02
  Q 139.39 46.50 133.42 46.64
  Q 130.70 46.70 130.59 46.70
  Q 128.29 46.66 126.01 46.94
  A 1.13 0.80 5.1 0 0 125.20 47.41
  L 123.04 51.75"
/>
<path stroke="#dffefb" vector-effect="non-scaling-stroke" d="
  M 123.04 51.75
  Q 122.30 51.15 121.55 51.63
  Q 121.13 51.90 120.88 52.70
  Q 119.79 56.26 116.56 59.06
  Q 113.40 61.81 104.34 71.14
  A 1.84 1.24 5.5 0 1 103.51 71.59
  Q 102.51 71.82 101.71 72.50"
/>
<path stroke="#648397" vector-effect="non-scaling-stroke" d="
  M 101.71 72.50
  Q 98.90 67.30 96.66 61.82
  Q 94.51 56.59 90.32 52.88
  Q 89.51 52.16 90.28 52.12
  Q 90.79 52.09 91.82 52.28
  A 0.75 0.69 6.0 0 0 92.70 51.63
  L 92.95 43.51
  A 0.72 0.65 89.2 0 1 93.56 42.82
  Q 101.58 42.33 102.47 35.50
  Q 102.94 31.87 102.48 28.11
  A 2.64 2.63 69.2 0 1 103.58 25.65
  Q 109.97 21.18 106.15 15.74
  Q 105.20 14.41 104.12 14.10
  Q 102.62 13.68 101.31 14.94
  A 0.99 0.99 -48.1 0 1 100.01 15.01
  Q 93.78 10.19 86.00 11.75
  Q 80.17 12.92 77.31 17.84
  Q 75.22 21.45 75.39 25.46
  Q 75.58 29.66 78.32 33.16
  A 2.09 1.91 -55.0 0 1 78.57 35.10
  L 75.70 42.65
  A 1.39 1.20 11.3 0 1 74.36 43.41
  L 71.50 43.22
  A 0.67 0.54 -1.7 0 1 70.91 42.77
  Q 68.63 31.02 57.94 30.15
  Q 52.28 29.69 48.57 30.52
  Q 43.39 31.66 40.49 36.80
  A 1.86 1.17 68.0 0 0 40.32 37.74
  Q 40.39 38.63 39.76 38.45
  Q 39.19 38.29 39.07 38.28
  Q 35.66 38.03 33.37 39.94
  Q 31.47 41.54 30.74 44.74
  Q 28.78 53.31 37.71 56.64
  A 0.79 0.64 13.2 0 1 38.23 57.31
  L 38.02 61.97
  A 0.43 0.40 10.9 0 1 37.46 62.32
  Q 36.12 61.87 35.10 62.31
  Q 34.11 62.73 33.81 63.97
  Q 33.29 66.12 35.56 66.86
  A 1.03 0.97 9.4 0 1 36.27 67.80
  L 36.50 86.76
  Q 36.53 89.63 35.53 86.93
  Q 33.35 81.04 30.72 74.60
  Q 30.01 72.88 29.36 72.18
  Q 27.95 70.68 26.34 71.67
  Q 25.24 72.35 24.44 74.42
  Q 17.80 91.80 14.06 103.81
  Q 13.70 104.97 13.25 105.29"
/>
<path stroke="#648397" vector-effect="non-scaling-stroke" d="
  M 13.00 105.21
  Q 13.75 98.38 13.76 91.50
  Q 13.80 65.78 13.69 40.07
  A 1.47 0.59 43.5 0 0 13.31 39.24
  L 11.96 37.50"
/>
<path stroke="#050826" vector-effect="non-scaling-stroke" d="
  M 114.06 0.00
  Q 120.29 0.61 130.25 0.25
  Q 139.05 -0.06 176.19 0.44
  Q 176.77 0.44 178.31 0.00"
/>
<path stroke="#1c8091" vector-effect="non-scaling-stroke" d="
  M 205.50 7.96
  Q 203.14 8.95 200.50 8.00
  Q 189.08 3.89 176.25 3.29"
/>
<path stroke="#1d8097" vector-effect="non-scaling-stroke" d="
  M 223.75 37.46
  Q 222.65 38.85 222.50 40.25
  Q 222.13 43.65 222.21 48.75"
/>
<path stroke="#7bfbfb" vector-effect="non-scaling-stroke" d="
  M 222.21 48.75
  L 221.65 49.21
  A 1.38 0.82 83.2 0 0 221.27 50.07
  Q 220.84 54.42 218.15 57.90
  Q 214.72 62.33 210.48 65.98
  Q 209.11 67.17 207.25 67.29"
/>
<path stroke="#1d8095" vector-effect="non-scaling-stroke" d="
  M 207.25 67.29
  Q 201.75 64.76 198.39 69.65
  Q 196.58 72.27 194.97 75.23
  A 0.39 0.39 -48.0 0 1 194.30 75.27
  L 178.54 51.75"
/>
<path stroke="#98fbfc" vector-effect="non-scaling-stroke" d="
  M 178.54 51.75
  Q 178.92 51.81 179.18 51.63
  A 1.31 0.28 -37.9 0 1 179.99 51.24
  Q 183.36 51.08 184.00 48.00
  Q 184.57 45.27 182.89 43.66
  Q 181.36 42.20 179.15 42.52
  Q 176.21 42.95 175.21 46.50"
/>
<path stroke="#1d8095" vector-effect="non-scaling-stroke" d="
  M 175.21 46.50
  Q 173.38 44.16 171.94 41.56
  Q 170.61 39.17 168.53 39.80
  Q 167.51 40.12 165.90 41.74
  Q 162.51 45.16 159.04 48.50"
/>
<path stroke="#98fbfc" vector-effect="non-scaling-stroke" d="
  M 203.62 29.21
  Q 200.47 23.86 194.43 24.54
  A 1.18 1.17 -19.4 0 1 193.33 24.02
  Q 187.43 15.19 181.11 22.40
  A 1.36 1.35 22.8 0 1 179.97 22.86
  Q 173.19 22.24 170.78 28.51
  A 1.05 1.04 10.3 0 0 171.77 29.92
  L 203.31 29.75
  Q 203.94 29.75 203.62 29.21"
/>
<path stroke="#98fbfc" vector-effect="non-scaling-stroke" d="
  M 200.64 49.57
  A 4.21 4.21 0.0 0 0 196.43 45.36
  A 4.21 4.21 0.0 0 0 192.22 49.57
  A 4.21 4.21 0.0 0 0 196.43 53.78
  A 4.21 4.21 0.0 0 0 200.64 49.57"
/>
<path stroke="#98fbfc" vector-effect="non-scaling-stroke" d="
  M 186.9862 59.2395
  A 2.80 2.27 91.1 0 0 189.3096 56.4836
  A 2.80 2.27 91.1 0 0 187.0938 53.6405
  A 2.80 2.27 91.1 0 0 184.7704 56.3964
  A 2.80 2.27 91.1 0 0 186.9862 59.2395"
/>
<path stroke="#818398" vector-effect="non-scaling-stroke" d="
  M 101.71 72.50
  L 103.41 75.39
  A 0.53 0.44 -34.6 0 0 104.14 75.45
  Q 110.55 70.48 116.80 65.30
  Q 118.44 63.94 119.22 61.95
  Q 121.20 56.87 123.04 51.75"
/>
<path stroke="#818398" vector-effect="non-scaling-stroke" d="
  M 136.79 54.75
  L 132.68 66.53
  Q 132.51 67.01 132.60 67.50
  Q 133.33 71.73 130.20 74.30
  Q 130.07 74.40 129.09 74.91
  Q 128.16 75.38 128.71 76.34
  A 1.38 0.96 43.8 0 1 128.89 77.24
  Q 128.19 80.19 126.39 82.65
  Q 121.39 89.50 116.03 96.07
  Q 110.00 103.49 108.22 104.67
  Q 102.56 108.45 95.18 104.01
  A 0.31 0.30 16.5 0 0 94.71 104.25
  L 94.53 111.51
  A 2.35 2.08 24.5 0 0 95.28 113.20
  Q 105.76 122.73 115.36 132.38
  Q 121.26 138.31 120.50 146.50
  Q 118.49 168.13 117.59 184.70
  A 0.49 0.47 -88.3 0 0 118.06 185.22
  L 125.64 185.32
  A 1.28 1.13 -72.2 0 0 126.68 184.70
  Q 137.13 167.30 148.01 150.19
  Q 155.56 138.34 158.69 129.94
  Q 165.13 112.65 171.70 95.42
  Q 172.48 93.38 173.36 92.47
  Q 175.31 90.46 177.18 92.20
  Q 178.13 93.09 179.24 95.69
  Q 190.85 123.07 201.08 151.23
  Q 201.48 152.32 201.91 151.24
  Q 204.18 145.49 206.91 140.23
  Q 208.54 137.09 211.25 136.25
  Q 214.58 135.22 216.44 138.51
  Q 217.58 140.53 218.75 142.54"
/>
<path stroke="#648397" vector-effect="non-scaling-stroke" d="
  M 218.75 142.54
  Q 222.56 151.59 223.44 154.56
  Q 224.00 156.49 222.21 157.50"
/>
<path stroke="#548198" vector-effect="non-scaling-stroke" d="
  M 222.21 157.50
  Q 220.03 158.37 219.31 156.69
  Q 216.07 149.02 212.93 141.30
  Q 212.62 140.53 212.21 141.25
  Q 207.75 148.94 203.93 158.74
  A 2.46 2.40 46.0 0 0 203.92 160.46
  Q 208.79 173.32 200.30 184.58
  Q 199.60 185.50 200.76 185.50
  L 209.62 185.50
  A 0.88 0.87 -1.2 0 0 210.50 184.59
  Q 210.24 177.23 210.45 169.95
  Q 210.51 168.02 211.19 167.23
  Q 212.32 165.91 214.50 166.79"
/>
<path stroke="#0e7189" vector-effect="non-scaling-stroke" d="
  M 214.50 166.79
  Q 215.00 167.88 215.00 170.25
  Q 215.00 177.25 215.00 184.66
  A 0.63 0.62 -84.5 0 0 215.50 185.28
  Q 217.54 185.73 218.86 185.28
  Q 220.04 184.89 220.92 183.02
  Q 224.84 174.58 218.75 166.96"
/>
<path stroke="#548198" vector-effect="non-scaling-stroke" d="
  M 218.75 166.96
  Q 218.04 164.83 219.81 164.06
  Q 222.87 162.73 224.18 166.07
  Q 225.63 169.76 226.96 173.50"
/>
<path stroke="#060833" vector-effect="non-scaling-stroke" d="
  M 191.19 190.00
  Q 191.90 189.56 192.76 189.65
  Q 194.41 189.82 194.06 189.62
  Q 193.85 189.50 193.41 189.48
  Q 179.14 188.80 164.84 188.75
  Q 162.69 188.75 160.19 189.03
  Q 157.86 189.29 155.52 189.48
  A 0.32 0.20 -8.7 0 0 155.20 189.75
  Q 155.25 189.88 155.44 190.00"
/>
<path stroke="#060833" vector-effect="non-scaling-stroke" d="
  M 110.69 190.00
  Q 111.12 189.30 110.06 189.19
  Q 105.63 188.72 101.19 189.18
  Q 100.26 189.27 100.44 190.00"
/>
<path stroke="#060833" vector-effect="non-scaling-stroke" d="
  M 53.19 190.00
  L 54.77 189.62
  Q 55.27 189.50 54.75 189.49
  Q 43.76 189.17 32.76 189.02
  Q 31.78 189.01 29.33 189.56
  Q 27.71 189.92 25.75 189.75
  Q 21.73 189.41 13.44 190.00"
/>
<path stroke="#3b3c5c" stroke-opacity="0.996" vector-effect="non-scaling-stroke" d="
  M 0.54 154.25
  L 0.93 145.78
  A 0.29 0.26 -84.2 0 0 0.72 145.49
  L 0.50 145.46"
/>
<path stroke="#818398" vector-effect="non-scaling-stroke" d="
  M 85.00 29.25
  Q 85.12 29.83 85.19 30.41
  Q 85.26 30.97 85.02 31.55
  Q 82.51 37.66 80.15 43.60
  A 0.82 0.81 -65.2 0 0 80.52 44.63
  Q 84.91 46.95 87.93 50.42
  Q 88.56 51.15 88.51 50.18
  Q 88.22 44.86 90.11 38.52
  A 1.43 1.42 21.8 0 1 92.12 37.66
  Q 95.10 39.18 96.79 37.04
  Q 97.75 35.82 97.75 33.20
  Q 97.75 30.25 97.75 26.78
  A 0.70 0.64 89.6 0 0 97.10 26.08
  L 91.25 26.17
  A 0.46 0.41 81.6 0 0 90.88 26.74
  Q 92.18 32.01 87.46 30.94
  Q 86.82 30.80 86.60 30.38
  Q 86.35 29.89 86.46 29.25"
/>
<path stroke="#7a524c" vector-effect="non-scaling-stroke" d="
  M 86.46 29.25
  Q 86.41 24.95 86.75 23.75
  Q 87.35 21.63 90.25 21.21"
/>
<path stroke="#6e4846" vector-effect="non-scaling-stroke" d="
  M 90.25 21.21
  Q 95.98 20.88 101.72 20.99
  Q 102.04 21.00 102.25 20.86
  Q 102.88 20.44 101.91 20.17
  Q 100.45 19.77 99.17 19.01
  Q 96.62 17.51 93.83 16.67
  Q 90.67 15.72 88.10 16.03
  Q 83.62 16.56 81.29 20.35
  Q 79.99 22.48 80.11 24.88
  Q 80.22 27.16 81.26 29.61
  A 0.51 0.51 55.5 0 0 82.10 29.77
  Q 83.28 28.59 85.00 29.25"
/>
<path stroke="#e2915e" vector-effect="non-scaling-stroke" d="
  M 90.25 21.21
  Q 90.59 20.01 89.25 20.25
  Q 87.17 20.62 86.00 22.43
  Q 85.32 23.49 85.29 25.75
  Q 85.27 27.51 85.00 29.25"
/>
<path stroke="#f5ccb0" vector-effect="non-scaling-stroke" d="
  M 86.46 29.25
  L 85.00 29.25"
/>
<path stroke="#41504e" vector-effect="non-scaling-stroke" d="
  M 44.04 40.25
  L 46.46 44.38
  A 1.52 1.34 -13.2 0 0 47.70 45.05
  L 55.50 45.22
  A 1.64 1.46 85.4 0 1 56.93 46.59
  Q 57.56 50.40 54.24 50.18
  Q 51.50 50.00 47.36 50.00
  A 1.21 1.19 -84.1 0 0 46.19 50.96
  Q 45.47 54.43 43.21 56.26
  A 1.17 0.89 -24.3 0 0 42.78 57.06
  L 42.78 60.19
  A 0.53 0.50 89.0 0 0 43.30 60.72
  L 49.75 60.54"
/>
<path stroke="#525e62" vector-effect="non-scaling-stroke" d="
  M 49.75 60.54
  Q 58.06 60.02 62.76 53.92
  Q 64.79 51.28 65.49 48.23
  Q 66.25 44.92 65.50 41.75
  Q 63.88 34.93 54.81 35.02
  Q 52.52 35.04 50.24 34.86
  Q 46.41 34.56 43.94 39.44
  Q 43.67 39.96 44.04 40.25"
/>
<path stroke="#8da67d" vector-effect="non-scaling-stroke" d="
  M 49.75 60.54
  Q 48.62 60.54 49.35 59.96
  Q 49.54 59.82 49.80 59.78
  Q 62.04 58.03 64.80 46.01
  Q 65.20 44.27 64.00 43.21"
/>
<path stroke="#b0d9c6" vector-effect="non-scaling-stroke" d="
  M 64.00 43.21
  Q 65.10 41.33 62.75 40.96"
/>
<path stroke="#8da67d" vector-effect="non-scaling-stroke" d="
  M 62.75 40.96
  Q 63.21 39.70 61.81 39.19
  Q 58.67 38.04 55.89 38.93
  Q 55.13 39.17 54.66 39.73
  Q 54.13 40.36 53.90 41.05
  Q 53.42 42.50 52.45 41.33
  Q 48.79 36.91 44.04 40.25"
/>
<path stroke="#9fcbb2" vector-effect="non-scaling-stroke" d="
  M 62.75 40.96
  Q 60.62 40.85 61.13 42.48
  A 1.21 1.19 -86.6 0 0 61.75 43.19
  Q 62.81 43.70 64.00 43.21"
/>
<path stroke="#167792" vector-effect="non-scaling-stroke" d="
  M 39.7430 51.9979
  A 4.69 4.01 76.9 0 0 42.5856 46.5211
  A 4.69 4.01 76.9 0 0 37.6170 42.8621
  A 4.69 4.01 76.9 0 0 34.7744 48.3389
  A 4.69 4.01 76.9 0 0 39.7430 51.9979"
/>
<path stroke="#1a7489" vector-effect="non-scaling-stroke" d="
  M 70.46 50.50
  Q 70.12 50.93 70.21 51.50"
/>
<path stroke="#425251" vector-effect="non-scaling-stroke" d="
  M 70.21 51.50
  L 66.54 57.25"
/>
<path stroke="#41504e" vector-effect="non-scaling-stroke" d="
  M 66.54 57.25
  Q 65.27 58.40 64.34 59.80
  Q 63.50 61.07 63.53 62.93
  Q 63.77 79.43 63.50 88.50
  Q 63.44 90.46 65.00 90.96"
/>
<path stroke="#525e62" vector-effect="non-scaling-stroke" d="
  M 65.00 90.96
  Q 74.51 93.85 82.34 87.85
  Q 83.59 86.90 82.46 85.75"
/>
<path stroke="#425251" vector-effect="non-scaling-stroke" d="
  M 82.46 85.75
  Q 80.23 81.82 78.00 77.89
  Q 77.97 77.84 75.21 73.32
  Q 72.28 68.53 71.06 63.44
  Q 69.87 58.47 73.29 54.50"
/>
<path stroke="#1a7489" vector-effect="non-scaling-stroke" d="
  M 73.29 54.50
  Q 76.00 51.30 80.27 51.50
  Q 83.78 51.67 80.53 50.32
  Q 76.71 48.74 72.25 49.00
  Q 70.49 49.10 70.46 50.50"
/>
<path stroke="#56bea7" vector-effect="non-scaling-stroke" d="
  M 73.29 54.50
  Q 71.74 54.08 71.29 52.50"
/>
<path stroke="#2edfdf" vector-effect="non-scaling-stroke" d="
  M 71.29 52.50
  Q 71.95 51.03 70.46 50.50"
/>
<path stroke="#56bea7" vector-effect="non-scaling-stroke" d="
  M 71.29 52.50
  L 70.21 51.50"
/>
<path stroke="#8ea880" vector-effect="non-scaling-stroke" d="
  M 82.46 85.75
  Q 81.67 85.77 81.04 86.25"
/>
<path stroke="#7d9a6c" vector-effect="non-scaling-stroke" d="
  M 81.04 86.25
  Q 78.41 82.35 73.00 71.50
  Q 69.97 65.41 69.13 62.47
  A 1.98 1.28 -55.9 0 1 69.15 61.52
  Q 70.04 58.21 66.54 57.25"
/>
<path stroke="#8da67d" vector-effect="non-scaling-stroke" d="
  M 81.04 86.25
  Q 81.09 86.93 80.56 87.31
  Q 74.21 91.75 66.50 90.23
  Q 65.38 90.01 65.00 90.96"
/>
<path stroke="#167792" vector-effect="non-scaling-stroke" d="
  M 128.73 62.48
  A 1.44 1.24 -78.6 0 0 130.00 61.49
  L 133.06 52.34
  A 0.82 0.79 -80.5 0 0 132.32 51.26
  L 127.80 51.29
  A 0.69 0.66 -81.1 0 0 127.16 51.78
  L 124.13 61.78
  A 0.44 0.41 -80.4 0 0 124.50 62.35
  L 128.73 62.48"
/>
<path stroke="#067f93" vector-effect="non-scaling-stroke" d="
  M 76.29 58.75
  Q 74.74 62.84 77.44 67.56
  Q 86.12 82.78 95.39 97.64
  Q 97.04 100.29 100.02 101.20
  Q 106.37 103.14 107.25 96.75
  Q 107.53 94.68 105.46 91.00"
/>
<path stroke="#167792" vector-effect="non-scaling-stroke" d="
  M 105.46 91.00
  Q 103.46 85.27 100.59 79.93
  Q 96.33 72.00 92.71 63.77
  Q 92.06 62.28 91.04 61.00"
/>
<path stroke="#417f96" vector-effect="non-scaling-stroke" d="
  M 91.04 61.00
  Q 86.75 54.25 78.75 56.25
  Q 77.16 56.65 76.29 58.75"
/>
<path stroke="#51eef5" vector-effect="non-scaling-stroke" d="
  M 91.04 61.00
  Q 90.35 61.89 89.29 61.25"
/>
<path stroke="#40f6f6" vector-effect="non-scaling-stroke" d="
  M 89.29 61.25
  Q 85.61 57.79 81.19 60.24
  A 0.78 0.76 -40.6 0 1 80.36 60.19
  Q 78.55 58.85 76.29 58.75"
/>
<path stroke="#16eef2" vector-effect="non-scaling-stroke" d="
  M 89.29 61.25
  Q 90.93 63.13 91.44 64.56
  Q 93.14 69.33 97.31 76.69
  Q 99.81 81.08 102.47 88.69
  Q 102.49 88.75 102.79 89.97
  Q 103.26 91.89 105.46 91.00"
/>
<path stroke="#41504e" vector-effect="non-scaling-stroke" d="
  M 52.55 81.84
  Q 52.43 82.26 52.47 82.70
  A 0.62 0.57 -2.0 0 0 53.07 83.21
  L 58.10 83.26
  A 0.75 0.73 90.0 0 0 58.83 82.51
  L 58.82 63.90
  A 0.37 0.34 -8.8 0 0 58.35 63.58
  L 53.24 65.16
  A 0.69 0.60 -10.0 0 0 52.75 65.77
  Q 52.79 73.74 52.69 81.01
  Q 52.69 81.29 52.55 81.84"
/>
<path stroke="#41504e" vector-effect="non-scaling-stroke" d="
  M 48.0639 66.0389
  A 0.26 0.26 0.0 0 0 47.8053 65.7776
  L 41.1454 65.7427
  A 0.26 0.26 0.0 0 0 40.8840 66.0013
  L 40.7961 82.8011
  A 0.26 0.26 0.0 0 0 41.0547 83.0624
  L 47.7146 83.0973
  A 0.26 0.26 0.0 0 0 47.9760 82.8387
  L 48.0639 66.0389"
/>
<path stroke="#818398" vector-effect="non-scaling-stroke" d="
  M 123.41 66.79
  A 0.30 0.28 -11.0 0 0 123.12 67.19
  Q 126.25 74.18 128.84 67.77
  A 0.78 0.66 9.8 0 0 128.08 66.86
  L 123.41 66.79"
/>
<path stroke="#067f93" vector-effect="non-scaling-stroke" d="
  M 111.08 93.56
  Q 118.19 86.23 123.76 78.49
  A 1.42 1.38 -44.3 0 0 123.80 76.91
  L 119.29 70.17
  A 0.47 0.46 52.9 0 0 118.61 70.07
  L 106.18 80.61
  A 0.64 0.61 55.8 0 0 106.05 81.38
  Q 108.91 86.87 110.60 93.43
  Q 110.72 93.93 111.08 93.56"
/>
<path stroke="#648397" vector-effect="non-scaling-stroke" d="
  M 14.29 178.25
  Q 13.37 181.49 13.86 184.81
  A 0.61 0.57 86.0 0 0 14.43 185.34
  L 25.50 185.46"
/>
<path stroke="#1a7489" vector-effect="non-scaling-stroke" d="
  M 25.50 185.46
  Q 26.70 185.83 26.69 184.94
  Q 26.33 143.36 26.75 119.75
  Q 26.79 117.27 29.75 117.71"
/>
<path stroke="#046e7f" vector-effect="non-scaling-stroke" d="
  M 29.75 117.71
  Q 31.18 118.07 31.19 119.81
  Q 31.45 160.06 31.32 184.97
  A 0.52 0.42 88.2 0 0 31.78 185.51
  L 32.25 185.46"
/>
<path stroke="#818398" vector-effect="non-scaling-stroke" d="
  M 32.25 185.46
  L 61.81 185.33
  A 0.53 0.53 -89.4 0 0 62.33 184.82
  Q 63.62 149.05 63.50 113.73
  Q 63.50 112.54 62.60 113.33
  Q 55.78 119.39 47.88 115.86
  Q 47.33 115.61 47.56 116.17
  Q 51.90 126.75 55.54 137.57
  Q 59.12 148.24 59.28 154.77
  Q 59.59 167.23 52.94 177.94
  Q 50.70 181.54 48.21 178.00"
/>
<path stroke="#046e7f" vector-effect="non-scaling-stroke" d="
  M 48.21 178.00
  Q 48.15 177.39 48.43 176.93
  Q 56.98 162.70 53.87 147.58
  Q 53.31 144.89 48.06 129.86
  Q 44.07 118.44 41.31 112.44
  Q 33.91 96.29 27.93 79.55
  Q 27.66 78.80 27.39 79.55
  Q 16.38 109.92 6.71 141.03
  Q 4.95 146.71 5.04 150.31
  Q 5.15 154.95 6.75 159.75
  Q 9.78 168.85 13.94 175.81
  Q 14.75 177.17 14.29 178.25"
/>
<path stroke="#7fe8e4" vector-effect="non-scaling-stroke" d="
  M 48.21 178.00
  Q 47.39 178.00 47.08 178.71
  Q 46.83 179.27 46.55 179.49
  Q 40.63 183.99 33.19 184.71
  A 1.02 0.54 1.9 0 0 32.45 185.07
  L 32.25 185.46"
/>
<path stroke="#18d9d5" vector-effect="non-scaling-stroke" d="
  M 29.75 117.71
  Q 27.81 116.84 26.12 117.69
  A 1.08 0.98 83.6 0 0 25.59 118.42
  Q 25.01 121.43 25.00 124.50
  Q 24.87 154.21 25.19 183.92
  A 0.44 0.32 -16.5 0 1 24.94 184.25
  Q 24.80 184.32 24.75 184.46"
/>
<path stroke="#62e9e3" vector-effect="non-scaling-stroke" d="
  M 24.75 184.46
  Q 20.08 184.46 16.41 181.59
  Q 14.76 180.30 14.29 178.25"
/>
<path stroke="#78efed" vector-effect="non-scaling-stroke" d="
  M 25.50 185.46
  Q 25.38 184.67 24.75 184.46"
/>
<path stroke="#425251" vector-effect="non-scaling-stroke" d="
  M 52.81 88.02
  Q 47.06 87.87 41.30 87.82
  A 0.49 0.49 85.4 0 0 40.80 88.30
  Q 40.60 94.95 40.75 97.00
  Q 41.25 104.07 46.01 109.24
  Q 49.21 112.71 54.00 112.48
  Q 58.80 112.25 58.74 107.50
  Q 58.62 98.37 59.04 88.38
  A 0.47 0.46 -0.6 0 0 58.54 87.90
  Q 55.38 88.09 52.81 88.02"
/>
<path stroke="#0a7890" vector-effect="non-scaling-stroke" d="
  M 74.37 110.83
  L 88.94 110.97
  A 1.02 0.98 -87.5 0 0 89.93 110.02
  L 90.71 99.49
  A 1.42 1.40 -60.2 0 0 90.47 98.58
  Q 88.50 95.66 86.63 92.67
  Q 85.07 90.18 84.95 93.04
  Q 84.92 93.76 84.72 94.30
  Q 80.81 105.12 70.52 110.34
  Q 68.83 111.20 72.41 110.87
  Q 73.00 110.82 74.37 110.83"
/>
<path stroke="#41504e" vector-effect="non-scaling-stroke" d="
  M 76.25 96.04
  Q 70.07 97.47 64.00 95.75
  A 0.39 0.39 -82.2 0 0 63.50 96.13
  L 63.54 106.50"
/>
<path stroke="#525e62" vector-effect="non-scaling-stroke" d="
  M 63.54 106.50
  L 63.51 107.94
  A 0.37 0.34 -12.3 0 0 64.03 108.24
  Q 73.24 104.17 79.38 94.96
  Q 79.83 94.29 79.11 94.64
  L 76.25 96.04"
/>
<path stroke="#8da67d" vector-effect="non-scaling-stroke" d="
  M 63.54 106.50
  Q 71.25 104.36 75.94 97.94
  Q 76.29 97.46 76.25 96.04"
/>
<path stroke="#046e7f" vector-effect="non-scaling-stroke" d="
  M 176.82 136.58
  A 1.81 1.81 -79.8 0 1 178.00 138.28
  L 178.00 184.59
  A 0.91 0.88 89.7 0 0 178.89 185.50
  L 194.07 185.34
  A 0.98 0.87 -72.8 0 0 194.83 184.88
  Q 199.08 178.06 200.25 174.00
  Q 201.81 168.58 200.07 163.19
  Q 192.47 139.56 182.97 116.62
  Q 179.38 107.96 176.04 99.14
  Q 175.58 97.90 175.11 99.14
  Q 164.21 128.04 154.36 157.54
  Q 151.77 165.28 151.56 167.31
  Q 151.07 172.15 153.19 177.31
  Q 155.17 182.14 156.81 185.00
  A 0.88 0.87 -14.7 0 0 157.57 185.44
  L 172.74 185.56
  A 0.50 0.50 0.6 0 0 173.25 185.06
  Q 173.25 162.98 173.25 140.95
  Q 173.25 140.85 173.20 139.56
  Q 173.05 135.19 176.82 136.58"
/>
<path stroke="#057283" vector-effect="non-scaling-stroke" d="
  M 67.94 156.19
  Q 67.19 170.49 67.19 184.81
  A 0.53 0.49 90.0 0 0 67.68 185.34
  L 77.69 185.46
  A 0.55 0.53 -88.3 0 0 78.22 184.94
  Q 78.83 174.23 79.25 163.50
  Q 79.30 162.29 79.94 160.45
  Q 80.52 158.79 80.67 157.46
  Q 82.89 136.94 85.77 116.37
  A 0.55 0.55 -86.3 0 0 85.23 115.75
  L 68.32 115.81
  A 0.50 0.49 -0.6 0 0 67.82 116.31
  Q 68.36 148.06 67.94 156.19"
/>
<path stroke="#067889" vector-effect="non-scaling-stroke" d="
  M 104.71 143.25
  Q 105.02 145.79 104.75 150.00
  Q 103.81 164.63 103.57 184.94
  A 0.51 0.50 -89.4 0 0 104.07 185.46
  L 112.44 185.46
  A 0.55 0.54 -88.8 0 0 112.97 184.94
  Q 114.15 164.69 116.01 144.50
  Q 116.33 141.01 114.31 138.21
  Q 112.00 135.02 109.00 132.46"
/>
<path stroke="#046e7f" vector-effect="non-scaling-stroke" d="
  M 109.00 132.46
  L 91.02 116.05
  Q 90.27 115.37 90.16 116.38
  L 88.85 128.95
  A 1.15 1.05 28.4 0 0 89.15 129.81
  Q 96.10 137.48 104.71 143.25"
/>
<path stroke="#04ddd5" vector-effect="non-scaling-stroke" d="
  M 109.00 132.46
  Q 108.21 132.55 108.75 133.01
  Q 110.28 134.32 110.43 136.21
  Q 110.44 136.44 110.30 136.25
  Q 109.55 135.26 110.00 136.50
  Q 110.69 138.38 108.31 140.31
  L 104.71 143.25"
/>
<path stroke="#818398" vector-effect="non-scaling-stroke" d="
  M 99.03 145.47
  L 88.37 136.08
  Q 88.00 135.75 87.92 136.25
  Q 86.89 142.87 86.13 149.53
  Q 85.67 153.51 84.41 162.80
  Q 82.91 173.80 82.82 184.94
  A 0.50 0.48 -90.0 0 0 83.31 185.45
  L 97.81 185.34
  A 0.55 0.53 -89.4 0 0 98.33 184.81
  L 99.96 147.64
  A 2.76 2.74 -68.4 0 0 99.03 145.47"
/>
<path stroke="#818398" vector-effect="non-scaling-stroke" d="
  M 146.42 185.51
  Q 148.33 185.64 150.96 185.45
  A 0.35 0.35 -15.0 0 0 151.25 184.95
  Q 149.15 180.49 147.70 175.88
  Q 146.87 173.24 146.75 171.04
  Q 146.60 168.32 147.06 166.06
  Q 147.71 162.93 149.94 155.94
  A 0.45 0.27 -62.3 0 0 149.92 155.57
  Q 149.83 155.46 149.71 155.49
  Q 149.58 155.52 149.48 155.71
  Q 141.29 170.42 132.73 184.54
  Q 132.07 185.62 133.33 185.53
  Q 140.09 185.06 146.42 185.51"
/>
<path stroke="#3b3c5c" stroke-opacity="0.996" vector-effect="non-scaling-stroke" d="
  M 226.71 39.75
  Q 225.89 62.24 226.29 84.75"
/>
<path stroke="#648397" vector-effect="non-scaling-stroke" d="
  M 226.29 84.75
  Q 225.85 86.71 223.51 85.92
  A 1.86 1.86 9.4 0 1 222.25 84.16
  L 222.21 48.75"
/>
<path stroke="#828296" vector-effect="non-scaling-stroke" d="
  M 175.21 46.50
  L 178.54 51.75"
/>
<path stroke="#658395" vector-effect="non-scaling-stroke" d="
  M 207.25 67.29
  Q 209.35 69.37 210.87 71.90
  Q 218.92 85.26 226.29 99.00"
/>
<path stroke="#3b3b5a" stroke-opacity="0.996" vector-effect="non-scaling-stroke" d="
  M 226.29 99.00
  L 226.29 142.00"
/>
<path stroke="#658395" vector-effect="non-scaling-stroke" d="
  M 226.29 142.00
  Q 223.67 145.57 222.00 141.46"
/>
<path stroke="#828296" vector-effect="non-scaling-stroke" d="
  M 222.00 141.46
  Q 222.39 123.04 222.26 104.62
  Q 222.26 104.51 222.36 102.89
  Q 222.48 100.91 221.40 99.39
  Q 220.16 97.65 220.14 97.62
  Q 212.57 84.48 205.39 72.09
  Q 204.16 69.97 202.84 72.03
  Q 195.54 83.33 188.35 94.66
  Q 186.82 97.07 186.59 97.29
  Q 185.25 98.55 183.05 97.68
  A 1.49 1.47 26.5 0 1 182.32 95.54
  L 191.39 80.78
  A 0.96 0.95 44.0 0 0 191.37 79.75
  L 168.91 46.08
  A 0.53 0.52 49.5 0 0 168.10 46.01
  Q 154.19 60.68 140.14 74.64
  Q 138.02 76.74 136.64 74.32
  A 2.24 2.08 52.1 0 1 136.86 71.78
  L 140.79 67.50"
/>
<path stroke="#99b7c0" stroke-opacity="0.996" vector-effect="non-scaling-stroke" d="
  M 226.96 84.75
  L 226.29 84.75"
/>
<path stroke="#dffefb" vector-effect="non-scaling-stroke" d="
  M 222.00 141.46
  Q 220.16 141.48 218.75 142.54"
/>
<path stroke="#818398" vector-effect="non-scaling-stroke" d="
  M 133.45 84.71
  L 151.11 124.73
  A 1.49 1.31 88.9 0 0 151.75 125.43
  Q 154.41 126.77 155.16 124.58
  Q 155.57 123.39 154.84 121.64
  Q 146.02 100.57 136.37 79.87
  Q 135.69 78.43 134.77 77.89
  Q 133.30 77.04 131.98 77.85
  Q 131.02 78.43 130.00 80.52
  Q 123.63 93.59 117.94 107.77
  A 3.72 3.71 46.0 0 0 117.90 110.43
  Q 118.77 112.79 121.01 111.68
  A 1.43 1.31 89.9 0 0 121.64 110.99
  L 133.06 84.71
  Q 133.26 84.26 133.45 84.71"
/>
<path stroke="#99b7c0" stroke-opacity="0.996" vector-effect="non-scaling-stroke" d="
  M 226.96 99.00
  L 226.29 99.00"
/>
<path stroke="#99b7c0" stroke-opacity="0.996" vector-effect="non-scaling-stroke" d="
  M 226.96 142.00
  L 226.29 142.00"
/>
<path stroke="#b2fcfc" vector-effect="non-scaling-stroke" d="
  M 222.21 157.50
  Q 222.33 159.43 224.25 159.51
  A 1.53 1.41 -22.5 0 1 225.12 159.83
  L 226.00 160.54"
/>
<path stroke="#5ceaee" vector-effect="non-scaling-stroke" d="
  M 218.75 166.96
  L 214.50 166.79"
/>
</g>
<path fill="#707086" fill-opacity="0.988" d="
  M 49.81 0.00
  L 54.06 0.00
  Q 51.61 1.57 48.75 0.79
  L 49.81 0.00
  Z"
/>
<path fill="#07072f" d="
  M 54.06 0.00
  L 59.06 0.00
  Q 59.51 0.77 60.25 0.25
  Q 64.48 0.25 68.71 0.25
  Q 68.81 0.25 73.76 0.53
  Q 76.92 0.71 80.06 0.00
  L 82.31 0.00
  Q 83.39 3.59 79.25 3.25
  Q 73.72 2.80 56.52 3.99
  Q 51.15 4.36 45.94 5.69
  Q 29.63 9.86 20.29 23.77
  Q 18.43 26.54 16.04 24.00
  Q 15.67 22.17 16.70 20.70
  Q 28.44 3.96 48.75 0.79
  Q 51.61 1.57 54.06 0.00
  Z"
/>
<path fill="#050826" d="
  M 59.06 0.00
  L 80.06 0.00
  Q 76.92 0.71 73.76 0.53
  Q 68.81 0.25 68.71 0.25
  Q 64.48 0.25 60.25 0.25
  Q 59.51 0.77 59.06 0.00
  Z"
/>
<path fill="#c2fefa" d="
  M 82.31 0.00
  L 113.06 0.00
  L 113.25 2.69
  A 0.56 0.53 -1.6 0 0 113.81 3.19
  L 176.25 3.29
  Q 176.45 4.12 175.69 4.44
  Q 169.00 7.24 164.68 13.48
  Q 154.21 28.61 158.14 46.76
  A 1.55 0.48 38.2 0 0 158.67 47.53
  Q 159.02 47.89 159.04 48.50
  L 140.79 67.50
  Q 138.27 65.01 138.50 61.63
  Q 138.66 59.21 138.48 58.37
  Q 138.15 56.75 137.56 55.19
  Q 137.79 54.46 136.79 54.75
  Q 137.05 53.88 137.33 53.02
  Q 139.39 46.50 133.42 46.64
  Q 130.70 46.70 130.59 46.70
  Q 128.29 46.66 126.01 46.94
  A 1.13 0.80 5.1 0 0 125.20 47.41
  L 123.04 51.75
  Q 122.30 51.15 121.55 51.63
  Q 121.13 51.90 120.88 52.70
  Q 119.79 56.26 116.56 59.06
  Q 113.40 61.81 104.34 71.14
  A 1.84 1.24 5.5 0 1 103.51 71.59
  Q 102.51 71.82 101.71 72.50
  Q 98.90 67.30 96.66 61.82
  Q 94.51 56.59 90.32 52.88
  Q 89.51 52.16 90.28 52.12
  Q 90.79 52.09 91.82 52.28
  A 0.75 0.69 6.0 0 0 92.70 51.63
  L 92.95 43.51
  A 0.72 0.65 89.2 0 1 93.56 42.82
  Q 101.58 42.33 102.47 35.50
  Q 102.94 31.87 102.48 28.11
  A 2.64 2.63 69.2 0 1 103.58 25.65
  Q 109.97 21.18 106.15 15.74
  Q 105.20 14.41 104.12 14.10
  Q 102.62 13.68 101.31 14.94
  A 0.99 0.99 -48.1 0 1 100.01 15.01
  Q 93.78 10.19 86.00 11.75
  Q 80.17 12.92 77.31 17.84
  Q 75.22 21.45 75.39 25.46
  Q 75.58 29.66 78.32 33.16
  A 2.09 1.91 -55.0 0 1 78.57 35.10
  L 75.70 42.65
  A 1.39 1.20 11.3 0 1 74.36 43.41
  L 71.50 43.22
  A 0.67 0.54 -1.7 0 1 70.91 42.77
  Q 68.63 31.02 57.94 30.15
  Q 52.28 29.69 48.57 30.52
  Q 43.39 31.66 40.49 36.80
  A 1.86 1.17 68.0 0 0 40.32 37.74
  Q 40.39 38.63 39.76 38.45
  Q 39.19 38.29 39.07 38.28
  Q 35.66 38.03 33.37 39.94
  Q 31.47 41.54 30.74 44.74
  Q 28.78 53.31 37.71 56.64
  A 0.79 0.64 13.2 0 1 38.23 57.31
  L 38.02 61.97
  A 0.43 0.40 10.9 0 1 37.46 62.32
  Q 36.12 61.87 35.10 62.31
  Q 34.11 62.73 33.81 63.97
  Q 33.29 66.12 35.56 66.86
  A 1.03 0.97 9.4 0 1 36.27 67.80
  L 36.50 86.76
  Q 36.53 89.63 35.53 86.93
  Q 33.35 81.04 30.72 74.60
  Q 30.01 72.88 29.36 72.18
  Q 27.95 70.68 26.34 71.67
  Q 25.24 72.35 24.44 74.42
  Q 17.80 91.80 14.06 103.81
  Q 13.70 104.97 13.25 105.29
  L 13.00 105.21
  Q 13.75 98.38 13.76 91.50
  Q 13.80 65.78 13.69 40.07
  A 1.47 0.59 43.5 0 0 13.31 39.24
  L 11.96 37.50
  Q 12.03 34.09 12.97 30.85
  Q 13.25 29.90 14.70 27.56
  Q 15.70 25.94 16.04 24.00
  Q 18.43 26.54 20.29 23.77
  Q 29.63 9.86 45.94 5.69
  Q 51.15 4.36 56.52 3.99
  Q 73.72 2.80 79.25 3.25
  Q 83.39 3.59 82.31 0.00
  Z"
/>
<path fill="#050826" d="
  M 113.06 0.00
  L 114.06 0.00
  Q 120.29 0.61 130.25 0.25
  Q 139.05 -0.06 176.19 0.44
  Q 176.77 0.44 178.31 0.00
  L 185.31 0.00
  Q 186.55 1.41 188.75 1.00
  Q 190.60 0.66 192.39 1.26
  Q 195.18 2.20 195.76 2.33
  Q 197.95 2.85 201.25 4.00
  Q 204.54 5.15 205.50 7.96
  Q 203.14 8.95 200.50 8.00
  Q 189.08 3.89 176.25 3.29
  L 113.81 3.19
  A 0.56 0.53 -1.6 0 1 113.25 2.69
  L 113.06 0.00
  Z"
/>
<path fill="#050826" d="
  M 114.06 0.00
  L 178.31 0.00
  Q 176.77 0.44 176.19 0.44
  Q 139.05 -0.06 130.25 0.25
  Q 120.29 0.61 114.06 0.00
  Z"
/>
<path fill="#33f8fb" d="
  M 176.25 3.29
  Q 189.08 3.89 200.50 8.00
  Q 203.14 8.95 205.50 7.96
  Q 214.87 14.38 220.31 24.94
  Q 223.49 31.11 223.75 37.46
  Q 222.65 38.85 222.50 40.25
  Q 222.13 43.65 222.21 48.75
  L 221.65 49.21
  A 1.38 0.82 83.2 0 0 221.27 50.07
  Q 220.84 54.42 218.15 57.90
  Q 214.72 62.33 210.48 65.98
  Q 209.11 67.17 207.25 67.29
  Q 201.75 64.76 198.39 69.65
  Q 196.58 72.27 194.97 75.23
  A 0.39 0.39 -48.0 0 1 194.30 75.27
  L 178.54 51.75
  Q 178.92 51.81 179.18 51.63
  A 1.31 0.28 -37.9 0 1 179.99 51.24
  Q 183.36 51.08 184.00 48.00
  Q 184.57 45.27 182.89 43.66
  Q 181.36 42.20 179.15 42.52
  Q 176.21 42.95 175.21 46.50
  Q 173.38 44.16 171.94 41.56
  Q 170.61 39.17 168.53 39.80
  Q 167.51 40.12 165.90 41.74
  Q 162.51 45.16 159.04 48.50
  Q 159.02 47.89 158.67 47.53
  A 1.55 0.48 38.2 0 1 158.14 46.76
  Q 154.21 28.61 164.68 13.48
  Q 169.00 7.24 175.69 4.44
  Q 176.45 4.12 176.25 3.29
  Z
  M 203.62 29.21
  Q 200.47 23.86 194.43 24.54
  A 1.18 1.17 -19.4 0 1 193.33 24.02
  Q 187.43 15.19 181.11 22.40
  A 1.36 1.35 22.8 0 1 179.97 22.86
  Q 173.19 22.24 170.78 28.51
  A 1.05 1.04 10.3 0 0 171.77 29.92
  L 203.31 29.75
  Q 203.94 29.75 203.62 29.21
  Z
  M 200.64 49.57
  A 4.21 4.21 0.0 0 0 196.43 45.36
  A 4.21 4.21 0.0 0 0 192.22 49.57
  A 4.21 4.21 0.0 0 0 196.43 53.78
  A 4.21 4.21 0.0 0 0 200.64 49.57
  Z
  M 186.9862 59.2395
  A 2.80 2.27 91.1 0 0 189.3096 56.4836
  A 2.80 2.27 91.1 0 0 187.0938 53.6405
  A 2.80 2.27 91.1 0 0 184.7704 56.3964
  A 2.80 2.27 91.1 0 0 186.9862 59.2395
  Z"
/>
<path fill="#060833" d="
  M 101.71 72.50
  L 103.41 75.39
  A 0.53 0.44 -34.6 0 0 104.14 75.45
  Q 110.55 70.48 116.80 65.30
  Q 118.44 63.94 119.22 61.95
  Q 121.20 56.87 123.04 51.75
  L 125.20 47.41
  A 1.13 0.80 5.1 0 1 126.01 46.94
  Q 128.29 46.66 130.59 46.70
  Q 130.70 46.70 133.42 46.64
  Q 139.39 46.50 137.33 53.02
  Q 137.05 53.88 136.79 54.75
  L 132.68 66.53
  Q 132.51 67.01 132.60 67.50
  Q 133.33 71.73 130.20 74.30
  Q 130.07 74.40 129.09 74.91
  Q 128.16 75.38 128.71 76.34
  A 1.38 0.96 43.8 0 1 128.89 77.24
  Q 128.19 80.19 126.39 82.65
  Q 121.39 89.50 116.03 96.07
  Q 110.00 103.49 108.22 104.67
  Q 102.56 108.45 95.18 104.01
  A 0.31 0.30 16.5 0 0 94.71 104.25
  L 94.53 111.51
  A 2.35 2.08 24.5 0 0 95.28 113.20
  Q 105.76 122.73 115.36 132.38
  Q 121.26 138.31 120.50 146.50
  Q 118.49 168.13 117.59 184.70
  A 0.49 0.47 -88.3 0 0 118.06 185.22
  L 125.64 185.32
  A 1.28 1.13 -72.2 0 0 126.68 184.70
  Q 137.13 167.30 148.01 150.19
  Q 155.56 138.34 158.69 129.94
  Q 165.13 112.65 171.70 95.42
  Q 172.48 93.38 173.36 92.47
  Q 175.31 90.46 177.18 92.20
  Q 178.13 93.09 179.24 95.69
  Q 190.85 123.07 201.08 151.23
  Q 201.48 152.32 201.91 151.24
  Q 204.18 145.49 206.91 140.23
  Q 208.54 137.09 211.25 136.25
  Q 214.58 135.22 216.44 138.51
  Q 217.58 140.53 218.75 142.54
  Q 222.56 151.59 223.44 154.56
  Q 224.00 156.49 222.21 157.50
  Q 220.03 158.37 219.31 156.69
  Q 216.07 149.02 212.93 141.30
  Q 212.62 140.53 212.21 141.25
  Q 207.75 148.94 203.93 158.74
  A 2.46 2.40 46.0 0 0 203.92 160.46
  Q 208.79 173.32 200.30 184.58
  Q 199.60 185.50 200.76 185.50
  L 209.62 185.50
  A 0.88 0.87 -1.2 0 0 210.50 184.59
  Q 210.24 177.23 210.45 169.95
  Q 210.51 168.02 211.19 167.23
  Q 212.32 165.91 214.50 166.79
  Q 215.00 167.88 215.00 170.25
  Q 215.00 177.25 215.00 184.66
  A 0.63 0.62 -84.5 0 0 215.50 185.28
  Q 217.54 185.73 218.86 185.28
  Q 220.04 184.89 220.92 183.02
  Q 224.84 174.58 218.75 166.96
  Q 218.04 164.83 219.81 164.06
  Q 222.87 162.73 224.18 166.07
  Q 225.63 169.76 226.96 173.50
  Q 227.03 177.37 227.06 181.25
  Q 227.07 182.83 225.73 183.66
  Q 224.06 184.70 225.72 185.37
  L 228.00 186.31
  L 228.00 190.00
  L 191.19 190.00
  Q 191.90 189.56 192.76 189.65
  Q 194.41 189.82 194.06 189.62
  Q 193.85 189.50 193.41 189.48
  Q 179.14 188.80 164.84 188.75
  Q 162.69 188.75 160.19 189.03
  Q 157.86 189.29 155.52 189.48
  A 0.32 0.20 -8.7 0 0 155.20 189.75
  Q 155.25 189.88 155.44 190.00
  L 110.69 190.00
  Q 111.12 189.30 110.06 189.19
  Q 105.63 188.72 101.19 189.18
  Q 100.26 189.27 100.44 190.00
  L 53.19 190.00
  L 54.77 189.62
  Q 55.27 189.50 54.75 189.49
  Q 43.76 189.17 32.76 189.02
  Q 31.78 189.01 29.33 189.56
  Q 27.71 189.92 25.75 189.75
  Q 21.73 189.41 13.44 190.00
  L 10.19 190.00
  Q 7.88 189.65 8.50 187.25
  Q 9.58 183.10 8.93 178.85
  Q 8.56 176.40 6.05 171.11
  Q 2.23 163.06 0.54 154.25
  L 0.93 145.78
  A 0.29 0.26 -84.2 0 0 0.72 145.49
  L 0.50 145.46
  Q 7.56 122.20 12.00 109.50
  Q 13.10 106.34 13.25 105.29
  Q 13.70 104.97 14.06 103.81
  Q 17.80 91.80 24.44 74.42
  Q 25.24 72.35 26.34 71.67
  Q 27.95 70.68 29.36 72.18
  Q 30.01 72.88 30.72 74.60
  Q 33.35 81.04 35.53 86.93
  Q 36.53 89.63 36.50 86.76
  L 36.27 67.80
  A 1.03 0.97 9.4 0 0 35.56 66.86
  Q 33.29 66.12 33.81 63.97
  Q 34.11 62.73 35.10 62.31
  Q 36.12 61.87 37.46 62.32
  A 0.43 0.40 10.9 0 0 38.02 61.97
  L 38.23 57.31
  A 0.79 0.64 13.2 0 0 37.71 56.64
  Q 28.78 53.31 30.74 44.74
  Q 31.47 41.54 33.37 39.94
  Q 35.66 38.03 39.07 38.28
  Q 39.19 38.29 39.76 38.45
  Q 40.39 38.63 40.32 37.74
  A 1.86 1.17 68.0 0 1 40.49 36.80
  Q 43.39 31.66 48.57 30.52
  Q 52.28 29.69 57.94 30.15
  Q 68.63 31.02 70.91 42.77
  A 0.67 0.54 -1.7 0 0 71.50 43.22
  L 74.36 43.41
  A 1.39 1.20 11.3 0 0 75.70 42.65
  L 78.57 35.10
  A 2.09 1.91 -55.0 0 0 78.32 33.16
  Q 75.58 29.66 75.39 25.46
  Q 75.22 21.45 77.31 17.84
  Q 80.17 12.92 86.00 11.75
  Q 93.78 10.19 100.01 15.01
  A 0.99 0.99 -48.1 0 0 101.31 14.94
  Q 102.62 13.68 104.12 14.10
  Q 105.20 14.41 106.15 15.74
  Q 109.97 21.18 103.58 25.65
  A 2.64 2.63 69.2 0 0 102.48 28.11
  Q 102.94 31.87 102.47 35.50
  Q 101.58 42.33 93.56 42.82
  A 0.72 0.65 89.2 0 0 92.95 43.51
  L 92.70 51.63
  A 0.75 0.69 6.0 0 1 91.82 52.28
  Q 90.79 52.09 90.28 52.12
  Q 89.51 52.16 90.32 52.88
  Q 94.51 56.59 96.66 61.82
  Q 98.90 67.30 101.71 72.50
  Z
  M 85.00 29.25
  Q 85.12 29.83 85.19 30.41
  Q 85.26 30.97 85.02 31.55
  Q 82.51 37.66 80.15 43.60
  A 0.82 0.81 -65.2 0 0 80.52 44.63
  Q 84.91 46.95 87.93 50.42
  Q 88.56 51.15 88.51 50.18
  Q 88.22 44.86 90.11 38.52
  A 1.43 1.42 21.8 0 1 92.12 37.66
  Q 95.10 39.18 96.79 37.04
  Q 97.75 35.82 97.75 33.20
  Q 97.75 30.25 97.75 26.78
  A 0.70 0.64 89.6 0 0 97.10 26.08
  L 91.25 26.17
  A 0.46 0.41 81.6 0 0 90.88 26.74
  Q 92.18 32.01 87.46 30.94
  Q 86.82 30.80 86.60 30.38
  Q 86.35 29.89 86.46 29.25
  Q 86.41 24.95 86.75 23.75
  Q 87.35 21.63 90.25 21.21
  Q 95.98 20.88 101.72 20.99
  Q 102.04 21.00 102.25 20.86
  Q 102.88 20.44 101.91 20.17
  Q 100.45 19.77 99.17 19.01
  Q 96.62 17.51 93.83 16.67
  Q 90.67 15.72 88.10 16.03
  Q 83.62 16.56 81.29 20.35
  Q 79.99 22.48 80.11 24.88
  Q 80.22 27.16 81.26 29.61
  A 0.51 0.51 55.5 0 0 82.10 29.77
  Q 83.28 28.59 85.00 29.25
  Z
  M 44.04 40.25
  L 46.46 44.38
  A 1.52 1.34 -13.2 0 0 47.70 45.05
  L 55.50 45.22
  A 1.64 1.46 85.4 0 1 56.93 46.59
  Q 57.56 50.40 54.24 50.18
  Q 51.50 50.00 47.36 50.00
  A 1.21 1.19 -84.1 0 0 46.19 50.96
  Q 45.47 54.43 43.21 56.26
  A 1.17 0.89 -24.3 0 0 42.78 57.06
  L 42.78 60.19
  A 0.53 0.50 89.0 0 0 43.30 60.72
  L 49.75 60.54
  Q 58.06 60.02 62.76 53.92
  Q 64.79 51.28 65.49 48.23
  Q 66.25 44.92 65.50 41.75
  Q 63.88 34.93 54.81 35.02
  Q 52.52 35.04 50.24 34.86
  Q 46.41 34.56 43.94 39.44
  Q 43.67 39.96 44.04 40.25
  Z
  M 39.7430 51.9979
  A 4.69 4.01 76.9 0 0 42.5856 46.5211
  A 4.69 4.01 76.9 0 0 37.6170 42.8621
  A 4.69 4.01 76.9 0 0 34.7744 48.3389
  A 4.69 4.01 76.9 0 0 39.7430 51.9979
  Z
  M 70.46 50.50
  Q 70.12 50.93 70.21 51.50
  L 66.54 57.25
  Q 65.27 58.40 64.34 59.80
  Q 63.50 61.07 63.53 62.93
  Q 63.77 79.43 63.50 88.50
  Q 63.44 90.46 65.00 90.96
  Q 74.51 93.85 82.34 87.85
  Q 83.59 86.90 82.46 85.75
  Q 80.23 81.82 78.00 77.89
  Q 77.97 77.84 75.21 73.32
  Q 72.28 68.53 71.06 63.44
  Q 69.87 58.47 73.29 54.50
  Q 76.00 51.30 80.27 51.50
  Q 83.78 51.67 80.53 50.32
  Q 76.71 48.74 72.25 49.00
  Q 70.49 49.10 70.46 50.50
  Z
  M 128.73 62.48
  A 1.44 1.24 -78.6 0 0 130.00 61.49
  L 133.06 52.34
  A 0.82 0.79 -80.5 0 0 132.32 51.26
  L 127.80 51.29
  A 0.69 0.66 -81.1 0 0 127.16 51.78
  L 124.13 61.78
  A 0.44 0.41 -80.4 0 0 124.50 62.35
  L 128.73 62.48
  Z
  M 76.29 58.75
  Q 74.74 62.84 77.44 67.56
  Q 86.12 82.78 95.39 97.64
  Q 97.04 100.29 100.02 101.20
  Q 106.37 103.14 107.25 96.75
  Q 107.53 94.68 105.46 91.00
  Q 103.46 85.27 100.59 79.93
  Q 96.33 72.00 92.71 63.77
  Q 92.06 62.28 91.04 61.00
  Q 86.75 54.25 78.75 56.25
  Q 77.16 56.65 76.29 58.75
  Z
  M 52.55 81.84
  Q 52.43 82.26 52.47 82.70
  A 0.62 0.57 -2.0 0 0 53.07 83.21
  L 58.10 83.26
  A 0.75 0.73 90.0 0 0 58.83 82.51
  L 58.82 63.90
  A 0.37 0.34 -8.8 0 0 58.35 63.58
  L 53.24 65.16
  A 0.69 0.60 -10.0 0 0 52.75 65.77
  Q 52.79 73.74 52.69 81.01
  Q 52.69 81.29 52.55 81.84
  Z
  M 48.0639 66.0389
  A 0.26 0.26 0.0 0 0 47.8053 65.7776
  L 41.1454 65.7427
  A 0.26 0.26 0.0 0 0 40.8840 66.0013
  L 40.7961 82.8011
  A 0.26 0.26 0.0 0 0 41.0547 83.0624
  L 47.7146 83.0973
  A 0.26 0.26 0.0 0 0 47.9760 82.8387
  L 48.0639 66.0389
  Z
  M 123.41 66.79
  A 0.30 0.28 -11.0 0 0 123.12 67.19
  Q 126.25 74.18 128.84 67.77
  A 0.78 0.66 9.8 0 0 128.08 66.86
  L 123.41 66.79
  Z
  M 111.08 93.56
  Q 118.19 86.23 123.76 78.49
  A 1.42 1.38 -44.3 0 0 123.80 76.91
  L 119.29 70.17
  A 0.47 0.46 52.9 0 0 118.61 70.07
  L 106.18 80.61
  A 0.64 0.61 55.8 0 0 106.05 81.38
  Q 108.91 86.87 110.60 93.43
  Q 110.72 93.93 111.08 93.56
  Z
  M 14.29 178.25
  Q 13.37 181.49 13.86 184.81
  A 0.61 0.57 86.0 0 0 14.43 185.34
  L 25.50 185.46
  Q 26.70 185.83 26.69 184.94
  Q 26.33 143.36 26.75 119.75
  Q 26.79 117.27 29.75 117.71
  Q 31.18 118.07 31.19 119.81
  Q 31.45 160.06 31.32 184.97
  A 0.52 0.42 88.2 0 0 31.78 185.51
  L 32.25 185.46
  L 61.81 185.33
  A 0.53 0.53 -89.4 0 0 62.33 184.82
  Q 63.62 149.05 63.50 113.73
  Q 63.50 112.54 62.60 113.33
  Q 55.78 119.39 47.88 115.86
  Q 47.33 115.61 47.56 116.17
  Q 51.90 126.75 55.54 137.57
  Q 59.12 148.24 59.28 154.77
  Q 59.59 167.23 52.94 177.94
  Q 50.70 181.54 48.21 178.00
  Q 48.15 177.39 48.43 176.93
  Q 56.98 162.70 53.87 147.58
  Q 53.31 144.89 48.06 129.86
  Q 44.07 118.44 41.31 112.44
  Q 33.91 96.29 27.93 79.55
  Q 27.66 78.80 27.39 79.55
  Q 16.38 109.92 6.71 141.03
  Q 4.95 146.71 5.04 150.31
  Q 5.15 154.95 6.75 159.75
  Q 9.78 168.85 13.94 175.81
  Q 14.75 177.17 14.29 178.25
  Z
  M 52.81 88.02
  Q 47.06 87.87 41.30 87.82
  A 0.49 0.49 85.4 0 0 40.80 88.30
  Q 40.60 94.95 40.75 97.00
  Q 41.25 104.07 46.01 109.24
  Q 49.21 112.71 54.00 112.48
  Q 58.80 112.25 58.74 107.50
  Q 58.62 98.37 59.04 88.38
  A 0.47 0.46 -0.6 0 0 58.54 87.90
  Q 55.38 88.09 52.81 88.02
  Z
  M 74.37 110.83
  L 88.94 110.97
  A 1.02 0.98 -87.5 0 0 89.93 110.02
  L 90.71 99.49
  A 1.42 1.40 -60.2 0 0 90.47 98.58
  Q 88.50 95.66 86.63 92.67
  Q 85.07 90.18 84.95 93.04
  Q 84.92 93.76 84.72 94.30
  Q 80.81 105.12 70.52 110.34
  Q 68.83 111.20 72.41 110.87
  Q 73.00 110.82 74.37 110.83
  Z
  M 76.25 96.04
  Q 70.07 97.47 64.00 95.75
  A 0.39 0.39 -82.2 0 0 63.50 96.13
  L 63.54 106.50
  L 63.51 107.94
  A 0.37 0.34 -12.3 0 0 64.03 108.24
  Q 73.24 104.17 79.38 94.96
  Q 79.83 94.29 79.11 94.64
  L 76.25 96.04
  Z
  M 176.82 136.58
  A 1.81 1.81 -79.8 0 1 178.00 138.28
  L 178.00 184.59
  A 0.91 0.88 89.7 0 0 178.89 185.50
  L 194.07 185.34
  A 0.98 0.87 -72.8 0 0 194.83 184.88
  Q 199.08 178.06 200.25 174.00
  Q 201.81 168.58 200.07 163.19
  Q 192.47 139.56 182.97 116.62
  Q 179.38 107.96 176.04 99.14
  Q 175.58 97.90 175.11 99.14
  Q 164.21 128.04 154.36 157.54
  Q 151.77 165.28 151.56 167.31
  Q 151.07 172.15 153.19 177.31
  Q 155.17 182.14 156.81 185.00
  A 0.88 0.87 -14.7 0 0 157.57 185.44
  L 172.74 185.56
  A 0.50 0.50 0.6 0 0 173.25 185.06
  Q 173.25 162.98 173.25 140.95
  Q 173.25 140.85 173.20 139.56
  Q 173.05 135.19 176.82 136.58
  Z
  M 67.94 156.19
  Q 67.19 170.49 67.19 184.81
  A 0.53 0.49 90.0 0 0 67.68 185.34
  L 77.69 185.46
  A 0.55 0.53 -88.3 0 0 78.22 184.94
  Q 78.83 174.23 79.25 163.50
  Q 79.30 162.29 79.94 160.45
  Q 80.52 158.79 80.67 157.46
  Q 82.89 136.94 85.77 116.37
  A 0.55 0.55 -86.3 0 0 85.23 115.75
  L 68.32 115.81
  A 0.50 0.49 -0.6 0 0 67.82 116.31
  Q 68.36 148.06 67.94 156.19
  Z
  M 104.71 143.25
  Q 105.02 145.79 104.75 150.00
  Q 103.81 164.63 103.57 184.94
  A 0.51 0.50 -89.4 0 0 104.07 185.46
  L 112.44 185.46
  A 0.55 0.54 -88.8 0 0 112.97 184.94
  Q 114.15 164.69 116.01 144.50
  Q 116.33 141.01 114.31 138.21
  Q 112.00 135.02 109.00 132.46
  L 91.02 116.05
  Q 90.27 115.37 90.16 116.38
  L 88.85 128.95
  A 1.15 1.05 28.4 0 0 89.15 129.81
  Q 96.10 137.48 104.71 143.25
  Z
  M 99.03 145.47
  L 88.37 136.08
  Q 88.00 135.75 87.92 136.25
  Q 86.89 142.87 86.13 149.53
  Q 85.67 153.51 84.41 162.80
  Q 82.91 173.80 82.82 184.94
  A 0.50 0.48 -90.0 0 0 83.31 185.45
  L 97.81 185.34
  A 0.55 0.53 -89.4 0 0 98.33 184.81
  L 99.96 147.64
  A 2.76 2.74 -68.4 0 0 99.03 145.47
  Z
  M 146.42 185.51
  Q 148.33 185.64 150.96 185.45
  A 0.35 0.35 -15.0 0 0 151.25 184.95
  Q 149.15 180.49 147.70 175.88
  Q 146.87 173.24 146.75 171.04
  Q 146.60 168.32 147.06 166.06
  Q 147.71 162.93 149.94 155.94
  A 0.45 0.27 -62.3 0 0 149.92 155.57
  Q 149.83 155.46 149.71 155.49
  Q 149.58 155.52 149.48 155.71
  Q 141.29 170.42 132.73 184.54
  Q 132.07 185.62 133.33 185.53
  Q 140.09 185.06 146.42 185.51
  Z"
/>
<path fill="#d58758" d="
  M 90.25 21.21
  Q 90.59 20.01 89.25 20.25
  Q 87.17 20.62 86.00 22.43
  Q 85.32 23.49 85.29 25.75
  Q 85.27 27.51 85.00 29.25
  Q 83.28 28.59 82.10 29.77
  A 0.51 0.51 55.3 0 1 81.26 29.61
  Q 80.22 27.16 80.11 24.88
  Q 79.99 22.48 81.29 20.35
  Q 83.62 16.56 88.10 16.03
  Q 90.67 15.72 93.83 16.67
  Q 96.62 17.51 99.17 19.01
  Q 100.45 19.77 101.91 20.17
  Q 102.88 20.44 102.25 20.86
  Q 102.04 21.00 101.72 20.99
  Q 95.98 20.88 90.25 21.21
  Z"
/>
<path fill="#fcfdfc" d="
  M 203.62 29.21
  Q 203.94 29.75 203.31 29.75
  L 171.77 29.92
  A 1.05 1.04 10.3 0 1 170.78 28.51
  Q 173.19 22.24 179.97 22.86
  A 1.36 1.35 22.8 0 0 181.11 22.40
  Q 187.43 15.19 193.33 24.02
  A 1.18 1.17 -19.4 0 0 194.43 24.54
  Q 200.47 23.86 203.62 29.21
  Z"
/>
<path fill="#ee9b64" d="
  M 90.25 21.21
  Q 87.35 21.63 86.75 23.75
  Q 86.41 24.95 86.46 29.25
  L 85.00 29.25
  Q 85.27 27.51 85.29 25.75
  Q 85.32 23.49 86.00 22.43
  Q 87.17 20.62 89.25 20.25
  Q 90.59 20.01 90.25 21.21
  Z"
/>
<path fill="#fcfdfc" d="
  M 85.00 29.25
  L 86.46 29.25
  Q 86.35 29.89 86.60 30.38
  Q 86.82 30.80 87.46 30.94
  Q 92.18 32.01 90.88 26.74
  A 0.46 0.41 81.6 0 1 91.25 26.17
  L 97.10 26.08
  A 0.70 0.64 89.6 0 1 97.75 26.78
  Q 97.75 30.25 97.75 33.20
  Q 97.75 35.82 96.79 37.04
  Q 95.10 39.18 92.12 37.66
  A 1.43 1.42 21.8 0 0 90.11 38.52
  Q 88.22 44.86 88.51 50.18
  Q 88.56 51.15 87.93 50.42
  Q 84.91 46.95 80.52 44.63
  A 0.82 0.81 -65.2 0 1 80.15 43.60
  Q 82.51 37.66 85.02 31.55
  Q 85.26 30.97 85.19 30.41
  Q 85.12 29.83 85.00 29.25
  Z"
/>
<path fill="#9eb491" d="
  M 49.75 60.54
  Q 48.62 60.54 49.35 59.96
  Q 49.54 59.82 49.80 59.78
  Q 62.04 58.03 64.80 46.01
  Q 65.20 44.27 64.00 43.21
  Q 65.10 41.33 62.75 40.96
  Q 63.21 39.70 61.81 39.19
  Q 58.67 38.04 55.89 38.93
  Q 55.13 39.17 54.66 39.73
  Q 54.13 40.36 53.90 41.05
  Q 53.42 42.50 52.45 41.33
  Q 48.79 36.91 44.04 40.25
  Q 43.67 39.96 43.94 39.44
  Q 46.41 34.56 50.24 34.86
  Q 52.52 35.04 54.81 35.02
  Q 63.88 34.93 65.50 41.75
  Q 66.25 44.92 65.49 48.23
  Q 64.79 51.28 62.76 53.92
  Q 58.06 60.02 49.75 60.54
  Z"
/>
<path fill="#060833" d="
  M 11.96 37.50
  L 13.31 39.24
  A 1.47 0.59 43.5 0 1 13.69 40.07
  Q 13.80 65.78 13.76 91.50
  Q 13.75 98.38 13.00 105.21
  Q 10.80 105.30 9.39 103.81
  A 1.32 1.13 -70.4 0 1 9.06 102.94
  Q 8.95 72.97 9.05 43.00
  Q 9.07 39.45 11.96 37.50
  Z"
/>
<path fill="#060833" d="
  M 223.75 37.46
  Q 225.86 37.92 226.71 39.75
  Q 225.89 62.24 226.29 84.75
  Q 225.85 86.71 223.51 85.92
  A 1.86 1.86 9.4 0 1 222.25 84.16
  L 222.21 48.75
  Q 222.13 43.65 222.50 40.25
  Q 222.65 38.85 223.75 37.46
  Z"
/>
<path fill="#7b9769" d="
  M 62.75 40.96
  Q 60.62 40.85 61.13 42.48
  A 1.21 1.19 -86.6 0 0 61.75 43.19
  Q 62.81 43.70 64.00 43.21
  Q 65.20 44.27 64.80 46.01
  Q 62.04 58.03 49.80 59.78
  Q 49.54 59.82 49.35 59.96
  Q 48.62 60.54 49.75 60.54
  L 43.30 60.72
  A 0.53 0.50 89.0 0 1 42.78 60.19
  L 42.78 57.06
  A 1.17 0.89 -24.3 0 1 43.21 56.26
  Q 45.47 54.43 46.19 50.96
  A 1.21 1.19 -84.1 0 1 47.36 50.00
  Q 51.50 50.00 54.24 50.18
  Q 57.56 50.40 56.93 46.59
  A 1.64 1.46 85.4 0 0 55.50 45.22
  L 47.70 45.05
  A 1.52 1.34 -13.2 0 1 46.46 44.38
  L 44.04 40.25
  Q 48.79 36.91 52.45 41.33
  Q 53.42 42.50 53.90 41.05
  Q 54.13 40.36 54.66 39.73
  Q 55.13 39.17 55.89 38.93
  Q 58.67 38.04 61.81 39.19
  Q 63.21 39.70 62.75 40.96
  Z"
/>
<path fill="#07072f" d="
  M 175.21 46.50
  L 178.54 51.75
  L 194.30 75.27
  A 0.39 0.39 -48.0 0 0 194.97 75.23
  Q 196.58 72.27 198.39 69.65
  Q 201.75 64.76 207.25 67.29
  Q 209.35 69.37 210.87 71.90
  Q 218.92 85.26 226.29 99.00
  L 226.29 142.00
  Q 223.67 145.57 222.00 141.46
  Q 222.39 123.04 222.26 104.62
  Q 222.26 104.51 222.36 102.89
  Q 222.48 100.91 221.40 99.39
  Q 220.16 97.65 220.14 97.62
  Q 212.57 84.48 205.39 72.09
  Q 204.16 69.97 202.84 72.03
  Q 195.54 83.33 188.35 94.66
  Q 186.82 97.07 186.59 97.29
  Q 185.25 98.55 183.05 97.68
  A 1.49 1.47 26.5 0 1 182.32 95.54
  L 191.39 80.78
  A 0.96 0.95 44.0 0 0 191.37 79.75
  L 168.91 46.08
  A 0.53 0.52 49.5 0 0 168.10 46.01
  Q 154.19 60.68 140.14 74.64
  Q 138.02 76.74 136.64 74.32
  A 2.24 2.08 52.1 0 1 136.86 71.78
  L 140.79 67.50
  L 159.04 48.50
  Q 162.51 45.16 165.90 41.74
  Q 167.51 40.12 168.53 39.80
  Q 170.61 39.17 171.94 41.56
  Q 173.38 44.16 175.21 46.50
  Z"
/>
<path fill="#707086" fill-opacity="0.988" d="
  M 226.71 39.75
  L 226.96 84.75
  L 226.29 84.75
  Q 225.89 62.24 226.71 39.75
  Z"
/>
<path fill="#c2fefa" d="
  M 62.75 40.96
  Q 65.10 41.33 64.00 43.21
  Q 62.81 43.70 61.75 43.19
  A 1.21 1.19 -86.6 0 1 61.13 42.48
  Q 60.62 40.85 62.75 40.96
  Z"
/>
<path fill="#fcfdfc" d="
  M 178.54 51.75
  L 175.21 46.50
  Q 176.21 42.95 179.15 42.52
  Q 181.36 42.20 182.89 43.66
  Q 184.57 45.27 184.00 48.00
  Q 183.36 51.08 179.99 51.24
  A 1.31 0.28 -37.9 0 0 179.18 51.63
  Q 178.92 51.81 178.54 51.75
  Z"
/>
<ellipse fill="#26e6f1" cx="0.00" cy="0.00" transform="translate(38.68,47.43) rotate(76.9)" rx="4.69" ry="4.01"/>
<circle fill="#fcfdfc" cx="196.43" cy="49.57" r="4.21"/>
<path fill="#fcfdfc" d="
  M 222.00 141.46
  Q 220.16 141.48 218.75 142.54
  Q 217.58 140.53 216.44 138.51
  Q 214.58 135.22 211.25 136.25
  Q 208.54 137.09 206.91 140.23
  Q 204.18 145.49 201.91 151.24
  Q 201.48 152.32 201.08 151.23
  Q 190.85 123.07 179.24 95.69
  Q 178.13 93.09 177.18 92.20
  Q 175.31 90.46 173.36 92.47
  Q 172.48 93.38 171.70 95.42
  Q 165.13 112.65 158.69 129.94
  Q 155.56 138.34 148.01 150.19
  Q 137.13 167.30 126.68 184.70
  A 1.28 1.13 -72.2 0 1 125.64 185.32
  L 118.06 185.22
  A 0.49 0.47 -88.3 0 1 117.59 184.70
  Q 118.49 168.13 120.50 146.50
  Q 121.26 138.31 115.36 132.38
  Q 105.76 122.73 95.28 113.20
  A 2.35 2.08 24.5 0 1 94.53 111.51
  L 94.71 104.25
  A 0.31 0.30 16.5 0 1 95.18 104.01
  Q 102.56 108.45 108.22 104.67
  Q 110.00 103.49 116.03 96.07
  Q 121.39 89.50 126.39 82.65
  Q 128.19 80.19 128.89 77.24
  A 1.38 0.96 43.8 0 0 128.71 76.34
  Q 128.16 75.38 129.09 74.91
  Q 130.07 74.40 130.20 74.30
  Q 133.33 71.73 132.60 67.50
  Q 132.51 67.01 132.68 66.53
  L 136.79 54.75
  Q 137.79 54.46 137.56 55.19
  Q 138.15 56.75 138.48 58.37
  Q 138.66 59.21 138.50 61.63
  Q 138.27 65.01 140.79 67.50
  L 136.86 71.78
  A 2.24 2.08 52.1 0 0 136.64 74.32
  Q 138.02 76.74 140.14 74.64
  Q 154.19 60.68 168.10 46.01
  A 0.53 0.52 49.5 0 1 168.91 46.08
  L 191.37 79.75
  A 0.96 0.95 44.0 0 1 191.39 80.78
  L 182.32 95.54
  A 1.49 1.47 26.5 0 0 183.05 97.68
  Q 185.25 98.55 186.59 97.29
  Q 186.82 97.07 188.35 94.66
  Q 195.54 83.33 202.84 72.03
  Q 204.16 69.97 205.39 72.09
  Q 212.57 84.48 220.14 97.62
  Q 220.16 97.65 221.40 99.39
  Q 222.48 100.91 222.36 102.89
  Q 222.26 104.51 222.26 104.62
  Q 222.39 123.04 222.00 141.46
  Z
  M 133.45 84.71
  L 151.11 124.73
  A 1.49 1.31 88.9 0 0 151.75 125.43
  Q 154.41 126.77 155.16 124.58
  Q 155.57 123.39 154.84 121.64
  Q 146.02 100.57 136.37 79.87
  Q 135.69 78.43 134.77 77.89
  Q 133.30 77.04 131.98 77.85
  Q 131.02 78.43 130.00 80.52
  Q 123.63 93.59 117.94 107.77
  A 3.72 3.71 46.0 0 0 117.90 110.43
  Q 118.77 112.79 121.01 111.68
  A 1.43 1.31 89.9 0 0 121.64 110.99
  L 133.06 84.71
  Q 133.26 84.26 133.45 84.71
  Z"
/>
<path fill="#c2fefa" d="
  M 222.21 48.75
  L 222.25 84.16
  A 1.86 1.86 9.4 0 0 223.51 85.92
  Q 225.85 86.71 226.29 84.75
  L 226.96 84.75
  L 226.96 99.00
  L 226.29 99.00
  Q 218.92 85.26 210.87 71.90
  Q 209.35 69.37 207.25 67.29
  Q 209.11 67.17 210.48 65.98
  Q 214.72 62.33 218.15 57.90
  Q 220.84 54.42 221.27 50.07
  A 1.38 0.82 83.2 0 1 221.65 49.21
  L 222.21 48.75
  Z"
/>
<path fill="#2edfdf" d="
  M 73.29 54.50
  Q 71.74 54.08 71.29 52.50
  Q 71.95 51.03 70.46 50.50
  Q 70.49 49.10 72.25 49.00
  Q 76.71 48.74 80.53 50.32
  Q 83.78 51.67 80.27 51.50
  Q 76.00 51.30 73.29 54.50
  Z"
/>
<path fill="#2edfdf" d="
  M 70.46 50.50
  Q 71.95 51.03 71.29 52.50
  L 70.21 51.50
  Q 70.12 50.93 70.46 50.50
  Z"
/>
<path fill="#fcfdfc" d="
  M 123.04 51.75
  Q 121.20 56.87 119.22 61.95
  Q 118.44 63.94 116.80 65.30
  Q 110.55 70.48 104.14 75.45
  A 0.53 0.44 -34.6 0 1 103.41 75.39
  L 101.71 72.50
  Q 102.51 71.82 103.51 71.59
  A 1.84 1.24 5.5 0 0 104.34 71.14
  Q 113.40 61.81 116.56 59.06
  Q 119.79 56.26 120.88 52.70
  Q 121.13 51.90 121.55 51.63
  Q 122.30 51.15 123.04 51.75
  Z"
/>
<path fill="#26e6f1" d="
  M 128.73 62.48
  L 124.50 62.35
  A 0.44 0.41 -80.4 0 1 124.13 61.78
  L 127.16 51.78
  A 0.69 0.66 -81.1 0 1 127.80 51.29
  L 132.32 51.26
  A 0.82 0.79 -80.5 0 1 133.06 52.34
  L 130.00 61.49
  A 1.44 1.24 -78.6 0 1 128.73 62.48
  Z"
/>
<path fill="#7e9c6e" d="
  M 70.21 51.50
  L 71.29 52.50
  Q 71.74 54.08 73.29 54.50
  Q 69.87 58.47 71.06 63.44
  Q 72.28 68.53 75.21 73.32
  Q 77.97 77.84 78.00 77.89
  Q 80.23 81.82 82.46 85.75
  Q 81.67 85.77 81.04 86.25
  Q 78.41 82.35 73.00 71.50
  Q 69.97 65.41 69.13 62.47
  A 1.98 1.28 -55.9 0 1 69.15 61.52
  Q 70.04 58.21 66.54 57.25
  L 70.21 51.50
  Z"
/>
<ellipse fill="#fcfdfc" cx="0.00" cy="0.00" transform="translate(187.04,56.44) rotate(91.1)" rx="2.80" ry="2.27"/>
<path fill="#7bf5f9" d="
  M 91.04 61.00
  Q 90.35 61.89 89.29 61.25
  Q 85.61 57.79 81.19 60.24
  A 0.78 0.76 -40.6 0 1 80.36 60.19
  Q 78.55 58.85 76.29 58.75
  Q 77.16 56.65 78.75 56.25
  Q 86.75 54.25 91.04 61.00
  Z"
/>
<path fill="#7b9769" d="
  M 66.54 57.25
  Q 70.04 58.21 69.15 61.52
  A 1.98 1.28 -55.9 0 0 69.13 62.47
  Q 69.97 65.41 73.00 71.50
  Q 78.41 82.35 81.04 86.25
  Q 81.09 86.93 80.56 87.31
  Q 74.21 91.75 66.50 90.23
  Q 65.38 90.01 65.00 90.96
  Q 63.44 90.46 63.50 88.50
  Q 63.77 79.43 63.53 62.93
  Q 63.50 61.07 64.34 59.80
  Q 65.27 58.40 66.54 57.25
  Z"
/>
<path fill="#05f6f2" d="
  M 76.29 58.75
  Q 78.55 58.85 80.36 60.19
  A 0.78 0.76 -40.6 0 0 81.19 60.24
  Q 85.61 57.79 89.29 61.25
  Q 90.93 63.13 91.44 64.56
  Q 93.14 69.33 97.31 76.69
  Q 99.81 81.08 102.47 88.69
  Q 102.49 88.75 102.79 89.97
  Q 103.26 91.89 105.46 91.00
  Q 107.53 94.68 107.25 96.75
  Q 106.37 103.14 100.02 101.20
  Q 97.04 100.29 95.39 97.64
  Q 86.12 82.78 77.44 67.56
  Q 74.74 62.84 76.29 58.75
  Z"
/>
<path fill="#26e6f1" d="
  M 91.04 61.00
  Q 92.06 62.28 92.71 63.77
  Q 96.33 72.00 100.59 79.93
  Q 103.46 85.27 105.46 91.00
  Q 103.26 91.89 102.79 89.97
  Q 102.49 88.75 102.47 88.69
  Q 99.81 81.08 97.31 76.69
  Q 93.14 69.33 91.44 64.56
  Q 90.93 63.13 89.29 61.25
  Q 90.35 61.89 91.04 61.00
  Z"
/>
<path fill="#7b9769" d="
  M 52.69 81.01
  Q 52.79 73.74 52.75 65.77
  A 0.69 0.60 -10.0 0 1 53.24 65.16
  L 58.35 63.58
  A 0.37 0.34 -8.8 0 1 58.82 63.90
  L 58.83 82.51
  A 0.75 0.73 90.0 0 1 58.10 83.26
  L 53.07 83.21
  A 0.62 0.57 -2.0 0 1 52.47 82.70
  Q 52.43 82.26 52.55 81.84
  Q 52.69 81.29 52.69 81.01
  Z"
/>
<rect fill="#7b9769" x="-3.59" y="-8.66" transform="translate(44.43,74.42) rotate(0.3)" width="7.18" height="17.32" rx="0.26"/>
<path fill="#fcfdfc" d="
  M 123.41 66.79
  L 128.08 66.86
  A 0.78 0.66 9.8 0 1 128.84 67.77
  Q 126.25 74.18 123.12 67.19
  A 0.30 0.28 -11.0 0 1 123.41 66.79
  Z"
/>
<path fill="#05f6f2" d="
  M 111.08 93.56
  Q 110.72 93.93 110.60 93.43
  Q 108.91 86.87 106.05 81.38
  A 0.64 0.61 55.8 0 1 106.18 80.61
  L 118.61 70.07
  A 0.47 0.46 52.9 0 1 119.29 70.17
  L 123.80 76.91
  A 1.42 1.38 -44.3 0 1 123.76 78.49
  Q 118.19 86.23 111.08 93.56
  Z"
/>
<path fill="#060833" d="
  M 133.06 84.71
  L 121.64 110.99
  A 1.43 1.31 89.9 0 1 121.01 111.68
  Q 118.77 112.79 117.90 110.43
  A 3.72 3.71 46.0 0 1 117.94 107.77
  Q 123.63 93.59 130.00 80.52
  Q 131.02 78.43 131.98 77.85
  Q 133.30 77.04 134.77 77.89
  Q 135.69 78.43 136.37 79.87
  Q 146.02 100.57 154.84 121.64
  Q 155.57 123.39 155.16 124.58
  Q 154.41 126.77 151.75 125.43
  A 1.49 1.31 88.9 0 1 151.11 124.73
  L 133.45 84.71
  Q 133.26 84.26 133.06 84.71
  Z"
/>
<path fill="#01d3cb" d="
  M 48.21 178.00
  Q 47.39 178.00 47.08 178.71
  Q 46.83 179.27 46.55 179.49
  Q 40.63 183.99 33.19 184.71
  A 1.02 0.54 1.9 0 0 32.45 185.07
  L 32.25 185.46
  L 31.78 185.51
  A 0.52 0.42 88.2 0 1 31.32 184.97
  Q 31.45 160.06 31.19 119.81
  Q 31.18 118.07 29.75 117.71
  Q 27.81 116.84 26.12 117.69
  A 1.08 0.98 83.6 0 0 25.59 118.42
  Q 25.01 121.43 25.00 124.50
  Q 24.87 154.21 25.19 183.92
  A 0.44 0.32 -16.5 0 1 24.94 184.25
  Q 24.80 184.32 24.75 184.46
  Q 20.08 184.46 16.41 181.59
  Q 14.76 180.30 14.29 178.25
  Q 14.75 177.17 13.94 175.81
  Q 9.78 168.85 6.75 159.75
  Q 5.15 154.95 5.04 150.31
  Q 4.95 146.71 6.71 141.03
  Q 16.38 109.92 27.39 79.55
  Q 27.66 78.80 27.93 79.55
  Q 33.91 96.29 41.31 112.44
  Q 44.07 118.44 48.06 129.86
  Q 53.31 144.89 53.87 147.58
  Q 56.98 162.70 48.43 176.93
  Q 48.15 177.39 48.21 178.00
  Z"
/>
<path fill="#9eb491" d="
  M 82.46 85.75
  Q 83.59 86.90 82.34 87.85
  Q 74.51 93.85 65.00 90.96
  Q 65.38 90.01 66.50 90.23
  Q 74.21 91.75 80.56 87.31
  Q 81.09 86.93 81.04 86.25
  Q 81.67 85.77 82.46 85.75
  Z"
/>
<path fill="#7e9c6e" d="
  M 52.81 88.02
  Q 55.38 88.09 58.54 87.90
  A 0.47 0.46 -0.6 0 1 59.04 88.38
  Q 58.62 98.37 58.74 107.50
  Q 58.80 112.25 54.00 112.48
  Q 49.21 112.71 46.01 109.24
  Q 41.25 104.07 40.75 97.00
  Q 40.60 94.95 40.80 88.30
  A 0.49 0.49 72.4 0 1 41.30 87.82
  Q 47.06 87.87 52.81 88.02
  Z"
/>
<path fill="#0ee8ec" d="
  M 74.37 110.83
  Q 73.00 110.82 72.41 110.87
  Q 68.83 111.20 70.52 110.34
  Q 80.81 105.12 84.72 94.30
  Q 84.92 93.76 84.95 93.04
  Q 85.07 90.18 86.63 92.67
  Q 88.50 95.66 90.47 98.58
  A 1.42 1.40 -60.2 0 1 90.71 99.49
  L 89.93 110.02
  A 1.02 0.98 -87.5 0 1 88.94 110.97
  L 74.37 110.83
  Z"
/>
<path fill="#9eb491" d="
  M 63.54 106.50
  Q 71.25 104.36 75.94 97.94
  Q 76.29 97.46 76.25 96.04
  L 79.11 94.64
  Q 79.83 94.29 79.38 94.96
  Q 73.24 104.17 64.03 108.24
  A 0.37 0.34 -12.3 0 1 63.51 107.94
  L 63.54 106.50
  Z"
/>
<path fill="#7b9769" d="
  M 76.25 96.04
  Q 76.29 97.46 75.94 97.94
  Q 71.25 104.36 63.54 106.50
  L 63.50 96.13
  A 0.39 0.39 -82.2 0 1 64.00 95.75
  Q 70.07 97.47 76.25 96.04
  Z"
/>
<path fill="#01d3cb" d="
  M 176.82 136.58
  Q 173.05 135.19 173.20 139.56
  Q 173.25 140.85 173.25 140.95
  Q 173.25 162.98 173.25 185.06
  A 0.50 0.50 0.6 0 1 172.74 185.56
  L 157.57 185.44
  A 0.88 0.87 -14.7 0 1 156.81 185.00
  Q 155.17 182.14 153.19 177.31
  Q 151.07 172.15 151.56 167.31
  Q 151.77 165.28 154.36 157.54
  Q 164.21 128.04 175.11 99.14
  Q 175.58 97.90 176.04 99.14
  Q 179.38 107.96 182.97 116.62
  Q 192.47 139.56 200.07 163.19
  Q 201.81 168.58 200.25 174.00
  Q 199.08 178.06 194.83 184.88
  A 0.98 0.87 -72.8 0 1 194.07 185.34
  L 178.89 185.50
  A 0.91 0.88 89.7 0 1 178.00 184.59
  L 178.00 138.28
  A 1.81 1.81 -79.8 0 0 176.82 136.58
  Z"
/>
<path fill="#707086" fill-opacity="0.988" d="
  M 226.29 99.00
  L 226.96 99.00
  L 226.96 142.00
  L 226.29 142.00
  L 226.29 99.00
  Z"
/>
<path fill="#fcfdfc" d="
  M 32.25 185.46
  L 32.45 185.07
  A 1.02 0.54 1.9 0 1 33.19 184.71
  Q 40.63 183.99 46.55 179.49
  Q 46.83 179.27 47.08 178.71
  Q 47.39 178.00 48.21 178.00
  Q 50.70 181.54 52.94 177.94
  Q 59.59 167.23 59.28 154.77
  Q 59.12 148.24 55.54 137.57
  Q 51.90 126.75 47.56 116.17
  Q 47.33 115.61 47.88 115.86
  Q 55.78 119.39 62.60 113.33
  Q 63.50 112.54 63.50 113.73
  Q 63.62 149.05 62.33 184.82
  A 0.53 0.53 -89.4 0 1 61.81 185.33
  L 32.25 185.46
  Z"
/>
<path fill="#04dcd3" d="
  M 67.94 156.19
  Q 68.36 148.06 67.82 116.31
  A 0.50 0.49 -0.6 0 1 68.32 115.81
  L 85.23 115.75
  A 0.55 0.55 -86.3 0 1 85.77 116.37
  Q 82.89 136.94 80.67 157.46
  Q 80.52 158.79 79.94 160.45
  Q 79.30 162.29 79.25 163.50
  Q 78.83 174.23 78.22 184.94
  A 0.55 0.53 -88.3 0 1 77.69 185.46
  L 67.68 185.34
  A 0.53 0.49 90.0 0 1 67.19 184.81
  Q 67.19 170.49 67.94 156.19
  Z"
/>
<path fill="#01d3cb" d="
  M 109.00 132.46
  Q 108.21 132.55 108.75 133.01
  Q 110.28 134.32 110.43 136.21
  Q 110.44 136.44 110.30 136.25
  Q 109.55 135.26 110.00 136.50
  Q 110.69 138.38 108.31 140.31
  L 104.71 143.25
  Q 96.10 137.48 89.15 129.81
  A 1.15 1.05 28.4 0 1 88.85 128.95
  L 90.16 116.38
  Q 90.27 115.37 91.02 116.05
  L 109.00 132.46
  Z"
/>
<path fill="#2edfdf" d="
  M 29.75 117.71
  Q 26.79 117.27 26.75 119.75
  Q 26.33 143.36 26.69 184.94
  Q 26.70 185.83 25.50 185.46
  Q 25.38 184.67 24.75 184.46
  Q 24.80 184.32 24.94 184.25
  A 0.44 0.32 -16.5 0 0 25.19 183.92
  Q 24.87 154.21 25.00 124.50
  Q 25.01 121.43 25.59 118.42
  A 1.08 0.98 83.6 0 1 26.12 117.69
  Q 27.81 116.84 29.75 117.71
  Z"
/>
<path fill="#06e7df" d="
  M 109.00 132.46
  Q 112.00 135.02 114.31 138.21
  Q 116.33 141.01 116.01 144.50
  Q 114.15 164.69 112.97 184.94
  A 0.55 0.54 -88.8 0 1 112.44 185.46
  L 104.07 185.46
  A 0.51 0.50 -89.4 0 1 103.57 184.94
  Q 103.81 164.63 104.75 150.00
  Q 105.02 145.79 104.71 143.25
  L 108.31 140.31
  Q 110.69 138.38 110.00 136.50
  Q 109.55 135.26 110.30 136.25
  Q 110.44 136.44 110.43 136.21
  Q 110.28 134.32 108.75 133.01
  Q 108.21 132.55 109.00 132.46
  Z"
/>
<path fill="#fcfdfc" d="
  M 99.03 145.47
  A 2.76 2.74 -68.4 0 1 99.96 147.64
  L 98.33 184.81
  A 0.55 0.53 -89.4 0 1 97.81 185.34
  L 83.31 185.45
  A 0.50 0.48 -90.0 0 1 82.82 184.94
  Q 82.91 173.80 84.41 162.80
  Q 85.67 153.51 86.13 149.53
  Q 86.89 142.87 87.92 136.25
  Q 88.00 135.75 88.37 136.08
  L 99.03 145.47
  Z"
/>
<path fill="#a1f9fd" d="
  M 222.21 157.50
  Q 222.33 159.43 224.25 159.51
  A 1.53 1.41 -22.5 0 1 225.12 159.83
  L 226.00 160.54
  L 226.20 169.25
  Q 226.21 169.63 226.52 170.17
  Q 227.37 171.67 226.96 173.50
  Q 225.63 169.76 224.18 166.07
  Q 222.87 162.73 219.81 164.06
  Q 218.04 164.83 218.75 166.96
  L 214.50 166.79
  Q 212.32 165.91 211.19 167.23
  Q 210.51 168.02 210.45 169.95
  Q 210.24 177.23 210.50 184.59
  A 0.88 0.87 -1.2 0 1 209.62 185.50
  L 200.76 185.50
  Q 199.60 185.50 200.30 184.58
  Q 208.79 173.32 203.92 160.46
  A 2.46 2.40 46.0 0 1 203.93 158.74
  Q 207.75 148.94 212.21 141.25
  Q 212.62 140.53 212.93 141.30
  Q 216.07 149.02 219.31 156.69
  Q 220.03 158.37 222.21 157.50
  Z"
/>
<path fill="#c2fefa" d="
  M 222.00 141.46
  Q 223.67 145.57 226.29 142.00
  L 226.96 142.00
  L 226.95 158.94
  A 1.44 1.03 73.4 0 1 226.64 159.84
  L 226.00 160.54
  L 225.12 159.83
  A 1.53 1.41 -22.5 0 0 224.25 159.51
  Q 222.33 159.43 222.21 157.50
  Q 224.00 156.49 223.44 154.56
  Q 222.56 151.59 218.75 142.54
  Q 220.16 141.48 222.00 141.46
  Z"
/>
<path fill="#707086" fill-opacity="0.988" d="
  M 0.50 145.46
  L 0.72 145.49
  A 0.29 0.26 -84.2 0 1 0.93 145.78
  L 0.54 154.25
  L 0.00 152.44
  L 0.00 146.19
  L 0.50 145.46
  Z"
/>
<path fill="#fcfdfc" d="
  M 146.42 185.51
  Q 140.09 185.06 133.33 185.53
  Q 132.07 185.62 132.73 184.54
  Q 141.29 170.42 149.48 155.71
  Q 149.58 155.52 149.71 155.49
  Q 149.83 155.46 149.92 155.57
  A 0.45 0.27 -62.3 0 1 149.94 155.94
  Q 147.71 162.93 147.06 166.06
  Q 146.60 168.32 146.75 171.04
  Q 146.87 173.24 147.70 175.88
  Q 149.15 180.49 151.25 184.95
  A 0.35 0.35 -15.0 0 1 150.96 185.45
  Q 148.33 185.64 146.42 185.51
  Z"
/>
<path fill="#16dadf" d="
  M 214.50 166.79
  L 218.75 166.96
  Q 224.84 174.58 220.92 183.02
  Q 220.04 184.89 218.86 185.28
  Q 217.54 185.73 215.50 185.28
  A 0.63 0.62 -84.5 0 1 215.00 184.66
  Q 215.00 177.25 215.00 170.25
  Q 215.00 167.88 214.50 166.79
  Z"
/>
<path fill="#c2fefa" d="
  M 14.29 178.25
  Q 14.76 180.30 16.41 181.59
  Q 20.08 184.46 24.75 184.46
  Q 25.38 184.67 25.50 185.46
  L 14.43 185.34
  A 0.61 0.57 86.0 0 1 13.86 184.81
  Q 13.37 181.49 14.29 178.25
  Z"
/>
<path fill="#060833" d="
  M 191.19 190.00
  L 155.44 190.00
  Q 155.25 189.88 155.20 189.75
  A 0.32 0.20 -8.7 0 1 155.52 189.48
  Q 157.86 189.29 160.19 189.03
  Q 162.69 188.75 164.84 188.75
  Q 179.14 188.80 193.41 189.48
  Q 193.85 189.50 194.06 189.62
  Q 194.41 189.82 192.76 189.65
  Q 191.90 189.56 191.19 190.00
  Z"
/>
<path fill="#060833" d="
  M 53.19 190.00
  L 13.44 190.00
  Q 21.73 189.41 25.75 189.75
  Q 27.71 189.92 29.33 189.56
  Q 31.78 189.01 32.76 189.02
  Q 43.76 189.17 54.75 189.49
  Q 55.27 189.50 54.77 189.62
  L 53.19 190.00
  Z"
/>
<path fill="#060833" d="
  M 110.69 190.00
  L 100.44 190.00
  Q 100.26 189.27 101.19 189.18
  Q 105.63 188.72 110.06 189.19
  Q 111.12 189.30 110.69 190.00
  Z"
/>
</svg>
